<?xml version="1.0" encoding="UTF-8"?>
<svg width="167px" height="58px" viewBox="0 0 167 58" version="1.1" xmlns="http://www.w3.org/2000/svg" xmlns:xlink="http://www.w3.org/1999/xlink">
    <!-- Generator: Sketch 63.1 (92452) - https://sketch.com -->
    <title>Logo_Icons of Ukraine</title>
    <desc>Created with Sketch.</desc>
    <g id="Symbols" stroke="none" stroke-width="1" fill="none" fill-rule="evenodd">
        <g id="Header" transform="translate(-50.000000, -16.000000)" fill-rule="nonzero">
            <g id="Logo_Icons-of-Ukraine" transform="translate(50.000000, 16.000000)">
                <path d="M5.98242188,26 C5.97070312,24.6640625 5.95605469,23.0908203 5.93847656,21.2802734 C5.92382812,19.7714844 5.9152832,17.7398275 5.9128418,15.1853027 L5.9124349,13.038303 C5.91417101,11.5446687 5.92285156,9.86816406 5.93847656,8.00878906 C5.95605469,5.91699219 5.97070312,4.06835938 5.98242188,2.46289062 L5.98242188,2.46289062 L0.1640625,2.46289062 C0.1875,4.63085938 0.205078125,6.75488281 0.216796875,8.83496094 C0.228515625,10.9150391 0.234375,12.6347656 0.234375,13.9941406 L0.234010056,15.1077057 C0.232185337,17.8216709 0.223517923,20.0110294 0.208007812,21.6757812 C0.190429688,23.5625 0.17578125,25.0039062 0.1640625,26 L0.1640625,26 L5.98242188,26 Z M24.6503906,26.1582031 L25.1777344,21.9042969 L25.1777344,21.9042969 L24.1230469,21.9042969 C23.3964844,21.9042969 22.5498047,21.8427734 21.5830078,21.7197266 C20.6162109,21.5966797 19.7753906,21.3945312 19.0605469,21.1132812 C18.0761719,20.7382812 17.2880859,20.2109375 16.6962891,19.53125 C16.1044922,18.8515625 15.8085938,18.0019531 15.8085938,16.9824219 C15.8085938,16.0800781 16.1162109,15.265625 16.7314453,14.5390625 C17.3466797,13.8125 18.1757812,13.2734375 19.21875,12.921875 C20.0273438,12.6523438 20.8535156,12.4648438 21.6972656,12.359375 C22.5410156,12.2539062 23.3964844,12.2011719 24.2636719,12.2011719 L24.2636719,12.2011719 L24.9316406,12.2011719 L24.4570312,7.9296875 L24.4570312,7.9296875 L23.6660156,7.9296875 C21.6972656,7.9296875 19.9072266,8.12890625 18.2958984,8.52734375 C16.6845703,8.92578125 15.28125,9.51757812 14.0859375,10.3027344 C12.9140625,11.0527344 11.9794922,11.9931641 11.2822266,13.1240234 C10.5849609,14.2548828 10.2363281,15.546875 10.2363281,17 C10.2363281,18.4882812 10.6025391,19.8388672 11.3349609,21.0517578 C12.0673828,22.2646484 13.0957031,23.2578125 14.4199219,24.03125 C15.5800781,24.7226562 16.9072266,25.25 18.4013672,25.6132812 C19.8955078,25.9765625 21.6503906,26.1582031 23.6660156,26.1582031 L23.6660156,26.1582031 L24.6503906,26.1582031 Z M36.796875,26.4921875 C38.0859375,26.4921875 39.2753906,26.3017578 40.3652344,25.9208984 C41.4550781,25.5400391 42.4277344,24.9628906 43.2832031,24.1894531 C44.3027344,23.2636719 45.0703125,22.1826172 45.5859375,20.9462891 C46.1015625,19.7099609 46.359375,18.4121094 46.359375,17.0527344 C46.359375,15.6347656 46.1191406,14.3427734 45.6386719,13.1767578 C45.1582031,12.0107422 44.4316406,10.9648438 43.4589844,10.0390625 C42.5683594,9.20703125 41.5664062,8.59179688 40.453125,8.19335938 C39.3398438,7.79492188 38.1152344,7.59570312 36.7792969,7.59570312 C35.4550781,7.59570312 34.2158203,7.81542969 33.0615234,8.25488281 C31.9072266,8.69433594 30.8964844,9.33007812 30.0292969,10.1621094 C29.0683594,11.0878906 28.359375,12.1162109 27.9023438,13.2470703 C27.4453125,14.3779297 27.2167969,15.6347656 27.2167969,17.0175781 C27.2167969,18.4238281 27.4833984,19.7539062 28.0166016,21.0078125 C28.5498047,22.2617188 29.3085938,23.328125 30.2929688,24.2070312 C31.1484375,24.96875 32.1328125,25.5400391 33.2460938,25.9208984 C34.359375,26.3017578 35.5429688,26.4921875 36.796875,26.4921875 Z M36.796875,22.5019531 C36.3046875,22.5019531 35.8359375,22.4228516 35.390625,22.2646484 C34.9453125,22.1064453 34.5585938,21.8632812 34.2304688,21.5351562 C33.6328125,20.9726562 33.2080078,20.3076172 32.9560547,19.5400391 C32.7041016,18.7724609 32.578125,17.9316406 32.578125,17.0175781 C32.578125,16.2324219 32.7041016,15.4472656 32.9560547,14.6621094 C33.2080078,13.8769531 33.5683594,13.2382812 34.0371094,12.7460938 C34.4355469,12.3359375 34.8457031,12.0400391 35.2675781,11.8583984 C35.6894531,11.6767578 36.1933594,11.5859375 36.7792969,11.5859375 C37.2832031,11.5859375 37.7636719,11.6708984 38.2207031,11.8408203 C38.6777344,12.0107422 39.0703125,12.2597656 39.3984375,12.5878906 C39.9609375,13.1386719 40.3681641,13.8242188 40.6201172,14.6445312 C40.8720703,15.4648438 40.9980469,16.2910156 40.9980469,17.1230469 C40.9980469,17.9433594 40.8691406,18.734375 40.6113281,19.4960938 C40.3535156,20.2578125 39.984375,20.8964844 39.5039062,21.4121094 C39.1640625,21.7636719 38.7568359,22.0332031 38.2822266,22.2207031 C37.8076172,22.4082031 37.3125,22.5019531 36.796875,22.5019531 Z M55.4824219,26 C55.4824219,25.8359375 55.4707031,24.8691406 55.4472656,23.0996094 C55.4238281,21.3300781 55.4121094,19.8125 55.4121094,18.546875 L55.4125434,17.9548611 C55.4135561,17.2297454 55.4163411,16.3841146 55.4208984,15.4179688 C55.425293,14.4863281 55.4280396,13.8842773 55.4291382,13.6118164 L55.4296875,13.4492188 C56.1328125,13.0390625 56.8798828,12.6845703 57.6708984,12.3857422 C58.4619141,12.0869141 59.1503906,11.9375 59.7363281,11.9375 C60.6152344,11.9375 61.2275391,12.1806641 61.5732422,12.6669922 C61.9189453,13.1533203 62.1035156,13.9355469 62.1269531,15.0136719 C62.1386719,15.5644531 62.1474609,16.3759766 62.1533203,17.4482422 C62.1591797,18.5205078 62.1621094,19.3496094 62.1621094,19.9355469 C62.1621094,20.7675781 62.1533203,21.8955078 62.1357422,23.3193359 C62.1205078,24.5533203 62.111875,25.3890104 62.1098437,25.8264062 L62.109375,26 L67.5058594,26 C67.5058594,25.6484375 67.4941406,24.6787109 67.4707031,23.0908203 C67.4472656,21.5029297 67.4355469,20.1640625 67.4355469,19.0742188 L67.4359056,18.7888433 C67.4373406,18.1997967 67.4430804,17.5009766 67.453125,16.6923828 C67.4648438,15.7490234 67.4707031,14.5683594 67.4707031,13.1503906 C67.4707031,11.4511719 66.9960938,10.1005859 66.046875,9.09863281 C65.0976562,8.09667969 63.8144531,7.59570312 62.1972656,7.59570312 C61.2480469,7.59570312 60.1523438,7.80078125 58.9101562,8.2109375 C57.6679688,8.62109375 56.4902344,9.13671875 55.3769531,9.7578125 L55.3769531,9.7578125 L55.359375,9.72265625 L55.3769531,8.05273438 L50.0859375,8.05273438 C50.0976562,9.74023438 50.109375,11.3662109 50.1210938,12.9306641 C50.1328125,14.4951172 50.1386719,16.0332031 50.1386719,17.5449219 C50.1386719,20.1699219 50.1298828,22.1679688 50.1123047,23.5390625 C50.0947266,24.9101562 50.0859375,25.7304688 50.0859375,26 L50.0859375,26 L55.4824219,26 Z M74.6492578,26.215332 L75.1523438,26.2109375 C76.4296875,26.2109375 77.6953125,26.0996094 78.9492188,25.8769531 C80.203125,25.6542969 81.2578125,25.3085938 82.1132812,24.8398438 C82.9335938,24.3945312 83.6103516,23.8144531 84.1435547,23.0996094 C84.6767578,22.3847656 84.9433594,21.546875 84.9433594,20.5859375 C84.9433594,19.7070312 84.7353516,18.9482422 84.3193359,18.3095703 C83.9033203,17.6708984 83.2910156,17.1054688 82.4824219,16.6132812 C82.1074219,16.390625 81.5947266,16.1269531 80.9443359,15.8222656 C80.2939453,15.5175781 79.7519531,15.2480469 79.3183594,15.0136719 C78.8730469,14.7910156 78.5126953,14.5566406 78.2373047,14.3105469 C77.9619141,14.0644531 77.8242188,13.7714844 77.8242188,13.4316406 C77.8242188,13.1503906 77.9326172,12.8896484 78.1494141,12.6494141 C78.3662109,12.4091797 78.6972656,12.2070312 79.1425781,12.0429688 C79.4941406,11.9375 79.8925781,11.8525391 80.3378906,11.7880859 C80.7832031,11.7236328 81.2578125,11.6914062 81.7617188,11.6914062 C82.4882812,11.6914062 83.0947266,11.7060547 83.5810547,11.7353516 C84.0673828,11.7646484 84.3984375,11.7792969 84.5742188,11.7792969 L84.5742188,11.7792969 L84.1171875,7.89453125 C83.9296875,7.89453125 83.5546875,7.88574219 82.9921875,7.86816406 C82.4296875,7.85058594 81.7265625,7.84765625 80.8828125,7.859375 C79.875,7.8828125 78.7998047,7.9765625 77.6572266,8.140625 C76.5146484,8.3046875 75.5273438,8.59179688 74.6953125,9.00195312 C73.6523438,9.50585938 72.8789062,10.1181641 72.375,10.8388672 C71.8710938,11.5595703 71.6191406,12.3652344 71.6191406,13.2558594 C71.6191406,14.0761719 71.8154297,14.8232422 72.2080078,15.4970703 C72.6005859,16.1708984 73.2011719,16.7539062 74.0097656,17.2460938 C74.5136719,17.5507812 75.0820312,17.84375 75.7148438,18.125 C76.3476562,18.40625 76.8632812,18.6640625 77.2617188,18.8984375 C77.7539062,19.1679688 78.1142578,19.4140625 78.3427734,19.6367188 C78.5712891,19.859375 78.6855469,20.1347656 78.6855469,20.4628906 C78.6855469,20.8144531 78.5830078,21.1220703 78.3779297,21.3857422 C78.1728516,21.6494141 77.7480469,21.8691406 77.1035156,22.0449219 C76.6699219,22.1738281 76.2070312,22.2587891 75.7148438,22.2998047 C75.2226562,22.3408203 74.7832031,22.3613281 74.3964844,22.3613281 C73.6582031,22.3613281 72.9814453,22.3466797 72.3662109,22.3173828 C71.7509766,22.2880859 71.3027344,22.2675781 71.0214844,22.2558594 L71.0214844,22.2558594 L71.4433594,26.1230469 C71.6894531,26.1230469 72.1552734,26.140625 72.8408203,26.1757812 C73.5263672,26.2109375 74.296875,26.2226562 75.1523438,26.2109375 L74.6492578,26.215332 Z M104.982422,26.4921875 C106.271484,26.4921875 107.460938,26.3017578 108.550781,25.9208984 C109.640625,25.5400391 110.613281,24.9628906 111.46875,24.1894531 C112.488281,23.2636719 113.255859,22.1826172 113.771484,20.9462891 C114.287109,19.7099609 114.544922,18.4121094 114.544922,17.0527344 C114.544922,15.6347656 114.304688,14.3427734 113.824219,13.1767578 C113.34375,12.0107422 112.617188,10.9648438 111.644531,10.0390625 C110.753906,9.20703125 109.751953,8.59179688 108.638672,8.19335938 C107.525391,7.79492188 106.300781,7.59570312 104.964844,7.59570312 C103.640625,7.59570312 102.401367,7.81542969 101.24707,8.25488281 C100.092773,8.69433594 99.0820312,9.33007812 98.2148438,10.1621094 C97.2539062,11.0878906 96.5449219,12.1162109 96.0878906,13.2470703 C95.6308594,14.3779297 95.4023438,15.6347656 95.4023438,17.0175781 C95.4023438,18.4238281 95.6689453,19.7539062 96.2021484,21.0078125 C96.7353516,22.2617188 97.4941406,23.328125 98.4785156,24.2070312 C99.3339844,24.96875 100.318359,25.5400391 101.431641,25.9208984 C102.544922,26.3017578 103.728516,26.4921875 104.982422,26.4921875 Z M104.982422,22.5019531 C104.490234,22.5019531 104.021484,22.4228516 103.576172,22.2646484 C103.130859,22.1064453 102.744141,21.8632812 102.416016,21.5351562 C101.818359,20.9726562 101.393555,20.3076172 101.141602,19.5400391 C100.889648,18.7724609 100.763672,17.9316406 100.763672,17.0175781 C100.763672,16.2324219 100.889648,15.4472656 101.141602,14.6621094 C101.393555,13.8769531 101.753906,13.2382812 102.222656,12.7460938 C102.621094,12.3359375 103.03125,12.0400391 103.453125,11.8583984 C103.875,11.6767578 104.378906,11.5859375 104.964844,11.5859375 C105.46875,11.5859375 105.949219,11.6708984 106.40625,11.8408203 C106.863281,12.0107422 107.255859,12.2597656 107.583984,12.5878906 C108.146484,13.1386719 108.553711,13.8242188 108.805664,14.6445312 C109.057617,15.4648438 109.183594,16.2910156 109.183594,17.1230469 C109.183594,17.9433594 109.054688,18.734375 108.796875,19.4960938 C108.539062,20.2578125 108.169922,20.8964844 107.689453,21.4121094 C107.349609,21.7636719 106.942383,22.0332031 106.467773,22.2207031 C105.993164,22.4082031 105.498047,22.5019531 104.982422,22.5019531 Z M124.652344,26 C124.652344,25.390625 124.643555,23.5683594 124.625977,20.5332031 C124.608398,17.4980469 124.599609,14.6152344 124.599609,11.8847656 L124.599609,11.8847656 L130.083984,11.8847656 L130.083984,8.05273438 L124.388672,8.05273438 L124.388672,7.47265625 C124.388672,6.91015625 124.529297,6.39453125 124.810547,5.92578125 C125.091797,5.45703125 125.4375,5.09960938 125.847656,4.85351562 C126.304688,4.54882812 126.817383,4.33496094 127.385742,4.21191406 C127.954102,4.08886719 128.654297,4.02734375 129.486328,4.02734375 L129.486328,4.02734375 L130.435547,4.02734375 L129.943359,0.212890625 L129.943359,0.212890625 L128.396484,0.212890625 C126.755859,0.212890625 125.393555,0.39453125 124.30957,0.7578125 C123.225586,1.12109375 122.332031,1.59570312 121.628906,2.18164062 C120.808594,2.89648438 120.225586,3.68164062 119.879883,4.53710938 C119.53418,5.39257812 119.361328,6.34179688 119.361328,7.38476563 L119.361328,7.38476563 L119.361328,8.05273438 L116.056641,8.05273438 L116.056641,11.8847656 L119.308594,11.8847656 C119.308594,14.7558594 119.299805,17.6503906 119.282227,20.5683594 C119.264648,23.4863281 119.255859,25.296875 119.255859,26 L119.255859,26 L124.652344,26 Z M10.9394531,56.5976562 C12.6035156,56.5976562 14.0595703,56.3955078 15.3076172,55.9912109 C16.5556641,55.5869141 17.7128906,54.9628906 18.7792969,54.1191406 C19.7167969,53.3574219 20.4580078,52.3935547 21.0029297,51.2275391 C21.5478516,50.0615234 21.8203125,48.6757812 21.8203125,47.0703125 C21.8203125,46.3789062 21.8173828,45.5498047 21.8115234,44.5830078 C21.8056641,43.6162109 21.8027344,42.4648438 21.8027344,41.1289062 C21.8027344,40.0742188 21.8115234,38.9140625 21.8291016,37.6484375 C21.8466797,36.3828125 21.8554688,34.6542969 21.8554688,32.4628906 L21.8554688,32.4628906 L16.0371094,32.4628906 C16.0371094,33.4238281 16.0458984,34.6513672 16.0634766,36.1455078 C16.0810547,37.6396484 16.0898438,39.3300781 16.0898438,41.2167969 L16.0894922,41.7100391 C16.0885547,42.3784766 16.0857422,43.0900391 16.0810547,43.8447266 C16.0751953,44.7880859 16.0722656,45.734375 16.0722656,46.6835938 C16.0722656,48.4414062 15.6357422,49.7480469 14.7626953,50.6035156 C13.8896484,51.4589844 12.6152344,51.8867188 10.9394531,51.8867188 C9.36914062,51.8867188 8.11816406,51.4472656 7.18652344,50.5683594 C6.25488281,49.6894531 5.7890625,48.3945312 5.7890625,46.6835938 C5.7890625,45.734375 5.78613281,44.8115234 5.78027344,43.9150391 C5.77441406,43.0185547 5.77148438,42.1191406 5.77148438,41.2167969 C5.77148438,39.3535156 5.77734375,37.6777344 5.7890625,36.1894531 C5.80078125,34.7011719 5.8125,33.4589844 5.82421875,32.4628906 L5.82421875,32.4628906 L0.005859375,32.4628906 C0.005859375,34.6660156 0.0146484375,36.3564453 0.0322265625,37.5341797 C0.0498046875,38.7119141 0.05859375,39.8867188 0.05859375,41.0585938 C0.05859375,42.3945312 0.0556640625,43.5429688 0.0498046875,44.5039062 C0.0456194196,45.1902902 0.0429288903,45.8079161 0.0417330995,46.3567841 L0.041015625,46.9824219 C0.041015625,48.5878906 0.29296875,49.9677734 0.796875,51.1220703 C1.30078125,52.2763672 2.0390625,53.2578125 3.01171875,54.0664062 C3.92578125,54.8515625 5.01269531,55.4697266 6.27246094,55.9208984 C7.53222656,56.3720703 9.08789062,56.5976562 10.9394531,56.5976562 Z M32.8066406,56 C32.8066406,55.4960938 32.7949219,53.6035156 32.7714844,50.3222656 C32.7508042,47.427045 32.7392477,45.0701165 32.7368147,43.25148 L32.7366869,41.9279935 C32.7381218,40.6243423 32.7438616,38.9956752 32.7539062,37.0419922 C32.765625,34.7626953 32.7832031,32.4921875 32.8066406,30.2304688 L32.8066406,30.2304688 L27.4101562,30.2304688 C27.421875,32.6210938 27.4335938,34.8417969 27.4453125,36.8925781 C27.4544271,38.4876302 27.4599971,39.9408999 27.4620226,41.2523872 L27.4624219,43.7610156 C27.4603906,46.7726823 27.4517578,49.3728516 27.4365234,51.5615234 C27.4220024,53.6477157 27.4134791,55.0201663 27.4109537,55.6788752 L27.4101562,56 L32.8066406,56 Z M41.2792969,57.6171875 L45.6738281,55.71875 C43.9042969,53.2109375 42.3720703,51.0693359 41.0771484,49.2939453 C39.7822266,47.5185547 39.1347656,46.6308594 39.1347656,46.6308594 L39.1347656,46.6308594 L39.1347656,46.6132812 C39.4160156,46.25 40.1220703,45.3447266 41.2529297,43.8974609 C42.3837891,42.4501953 43.5234375,40.9648438 44.671875,39.4414062 L44.671875,39.4414062 L39.8730469,37.6132812 C38.6308594,39.453125 37.2216797,41.3603516 35.6455078,43.3349609 C34.0693359,45.3095703 33.1171875,46.5371094 32.7890625,47.0175781 L32.7890625,47.0175781 L32.7890625,47.0527344 C33.1640625,47.6269531 34.1074219,48.7900391 35.6191406,50.5419922 C37.1308594,52.2939453 39.0175781,54.6523438 41.2792969,57.6171875 L41.2792969,57.6171875 Z M53.4960938,56 C53.4960938,55.7070312 53.484375,54.7929688 53.4609375,53.2578125 C53.4375,51.7226562 53.4257812,50.3339844 53.4257812,49.0917969 C53.4257812,48.2949219 53.4287109,47.5097656 53.4345703,46.7363281 C53.4404297,45.9628906 53.4433594,45.4296875 53.4433594,45.1367188 C55.3535156,44.2578125 56.90625,43.5986328 58.1015625,43.1591797 C59.296875,42.7197266 60.375,42.3535156 61.3359375,42.0605469 L61.3359375,42.0605469 L59.9648438,37.4902344 C59.25,37.7011719 58.2539062,38.1083984 56.9765625,38.7119141 C55.6992188,39.3154297 54.5039062,39.9628906 53.390625,40.6542969 L53.390625,40.6542969 L53.3554688,40.6367188 L53.3730469,38.0527344 L48.0996094,38.0527344 C48.1113281,39.9511719 48.1230469,41.7558594 48.1347656,43.4667969 C48.1464844,45.1777344 48.1523438,46.5957031 48.1523438,47.7207031 L48.1522266,48.1854687 C48.1511328,50.3248437 48.1423828,52.0507812 48.1259766,53.3632812 C48.1083984,54.7695312 48.0996094,55.6484375 48.0996094,56 L48.0996094,56 L53.4960938,56 Z M71.7949219,56.2988281 C73.2949219,56.2988281 74.7128906,56.2578125 76.0488281,56.1757812 C77.3847656,56.09375 78.1464844,56.0410156 78.3339844,56.0175781 C78.3339844,55.7714844 78.3369141,54.8691406 78.3427734,53.3105469 C78.3472541,52.1186811 78.3500216,50.5430566 78.3510759,48.5836735 L78.3515625,46.6660156 C78.3515625,44.9902344 78.1611328,43.6396484 77.7802734,42.6142578 C77.3994141,41.5888672 76.7929688,40.7128906 75.9609375,39.9863281 C75.0585938,39.2128906 73.9482422,38.65625 72.6298828,38.3164062 C71.3115234,37.9765625 69.6621094,37.8066406 67.6816406,37.8066406 C66.7441406,37.8066406 66.0175781,37.8154297 65.5019531,37.8330078 C64.9863281,37.8505859 64.6113281,37.8652344 64.3769531,37.8769531 L64.3769531,37.8769531 L63.9023438,41.796875 C64.4882812,41.7734375 65.0332031,41.75 65.5371094,41.7265625 C66.0410156,41.703125 66.6445312,41.6914062 67.3476562,41.6914062 C68.1445312,41.6914062 68.8271484,41.7236328 69.3955078,41.7880859 C69.9638672,41.8525391 70.4824219,41.9609375 70.9511719,42.1132812 C71.6660156,42.3359375 72.1728516,42.6494141 72.4716797,43.0537109 C72.7705078,43.4580078 72.9375,43.9765625 72.9726562,44.609375 C71.8710938,44.6914062 70.640625,44.8320312 69.28125,45.03125 C67.921875,45.2304688 66.7792969,45.5058594 65.8535156,45.8574219 C64.4824219,46.3730469 63.46875,47.0292969 62.8125,47.8261719 C62.15625,48.6230469 61.828125,49.5839844 61.828125,50.7089844 C61.828125,51.7402344 62.1328125,52.6396484 62.7421875,53.4072266 C63.3515625,54.1748047 64.1953125,54.7929688 65.2734375,55.2617188 C66.1171875,55.625 67.1689453,55.8886719 68.4287109,56.0527344 C69.6884766,56.2167969 70.8105469,56.2988281 71.7949219,56.2988281 Z M72.0761719,53.0820312 C71.4902344,53.0820312 70.9453125,53.046875 70.4414062,52.9765625 C69.9375,52.90625 69.4863281,52.8007812 69.0878906,52.6601562 C68.5371094,52.4492188 68.0888672,52.1503906 67.7431641,51.7636719 C67.3974609,51.3769531 67.2246094,50.8554688 67.2246094,50.1992188 C67.2246094,49.6132812 67.4208984,49.1210938 67.8134766,48.7226562 C68.2060547,48.3242188 68.6367188,48.03125 69.1054688,47.84375 C69.7851562,47.5507812 70.5585938,47.3427734 71.4257812,47.2197266 C72.2929688,47.0966797 72.8964844,47.0292969 73.2363281,47.0175781 C73.2480469,47.5683594 73.2539062,48.0927734 73.2539062,48.5908203 L73.2539062,48.5908203 L73.2531888,50.5805564 C73.251993,51.1198581 73.2493025,51.5904018 73.2451172,51.9921875 C73.2405599,52.4296875 73.2377749,52.7431279 73.2367622,52.9325087 L73.2363281,53.0644531 C73.0136719,53.0644531 72.8027344,53.0673828 72.6035156,53.0732422 C72.4042969,53.0791016 72.2285156,53.0820312 72.0761719,53.0820312 Z M88.7578125,35.2578125 L88.7578125,31.109375 L83.1855469,31.109375 L83.1855469,35.2578125 L88.7578125,35.2578125 Z M88.6699219,56 C88.6699219,55.4726562 88.6582031,54.5146484 88.6347656,53.1259766 C88.6113281,51.7373047 88.5996094,49.7070312 88.5996094,47.0351562 C88.5996094,45.359375 88.6083984,43.8623047 88.6259766,42.5439453 C88.6435547,41.2255859 88.6582031,39.7285156 88.6699219,38.0527344 L88.6699219,38.0527344 L83.2734375,38.0527344 C83.296875,39.9042969 83.3115234,41.5683594 83.3173828,43.0449219 C83.3232422,44.5214844 83.3261719,45.9335938 83.3261719,47.28125 C83.3261719,48.875 83.3173828,50.5859375 83.2998047,52.4140625 C83.2842946,54.027114 83.2756272,55.1474913 83.2738024,55.7751946 L83.2734375,56 L88.6699219,56 Z M99.2519531,56 C99.2519531,55.8359375 99.2402344,54.8691406 99.2167969,53.0996094 C99.1933594,51.3300781 99.1816406,49.8125 99.1816406,48.546875 L99.1817491,48.2582465 C99.1823278,47.4688947 99.1852214,46.5221354 99.1904297,45.4179688 C99.1955566,44.3310547 99.1984406,43.692749 99.1990814,43.5030518 L99.1992188,43.4492188 C99.9023438,43.0390625 100.649414,42.6845703 101.44043,42.3857422 C102.231445,42.0869141 102.919922,41.9375 103.505859,41.9375 C104.384766,41.9375 104.99707,42.1806641 105.342773,42.6669922 C105.688477,43.1533203 105.873047,43.9355469 105.896484,45.0136719 C105.908203,45.5644531 105.916992,46.3759766 105.922852,47.4482422 C105.927409,48.2822266 105.930194,48.9691117 105.931207,49.5088976 L105.931423,50.1698008 C105.92997,50.9751017 105.921254,52.0249467 105.905273,53.3193359 C105.887695,54.7431641 105.878906,55.6367188 105.878906,56 L105.878906,56 L111.275391,56 C111.275391,55.6484375 111.263672,54.6787109 111.240234,53.0908203 C111.216797,51.5029297 111.205078,50.1640625 111.205078,49.0742188 L111.205437,48.7888433 C111.206872,48.1997967 111.212612,47.5009766 111.222656,46.6923828 C111.234375,45.7490234 111.240234,44.5683594 111.240234,43.1503906 C111.240234,41.4511719 110.765625,40.1005859 109.816406,39.0986328 C108.867188,38.0966797 107.583984,37.5957031 105.966797,37.5957031 C105.017578,37.5957031 103.921875,37.8007812 102.679688,38.2109375 C101.4375,38.6210938 100.259766,39.1367188 99.1464844,39.7578125 L99.1464844,39.7578125 L99.1289062,39.7226562 L99.1464844,38.0527344 L93.8554688,38.0527344 C93.8671875,39.7402344 93.8789062,41.3662109 93.890625,42.9306641 C93.9023438,44.4951172 93.9082031,46.0332031 93.9082031,47.5449219 C93.9082031,50.1699219 93.8994141,52.1679688 93.8818359,53.5390625 C93.8666016,54.7273437 93.8579687,55.5019271 93.8559375,55.8628125 L93.8554688,56 L99.2519531,56 Z M127.412109,56.1582031 C128.162109,56.1582031 128.827148,56.1435547 129.407227,56.1142578 C129.987305,56.0849609 130.400391,56.0585938 130.646484,56.0351562 L130.646484,56.0351562 L131.191406,52.1855469 C130.933594,52.1972656 130.529297,52.2148438 129.978516,52.2382812 C129.427734,52.2617188 128.777344,52.2734375 128.027344,52.2734375 C127.078125,52.2734375 126.208008,52.2060547 125.416992,52.0712891 C124.625977,51.9365234 123.873047,51.7109375 123.158203,51.3945312 C122.126953,50.9140625 121.365234,50.2900391 120.873047,49.5224609 C120.380859,48.7548828 120.128906,47.9199219 120.117188,47.0175781 L120.117188,47.0175781 L132.316406,47.0175781 C132.316406,45.3886719 132.123047,43.9794922 131.736328,42.7900391 C131.349609,41.6005859 130.734375,40.5839844 129.890625,39.7402344 C129.175781,39.0253906 128.320312,38.4892578 127.324219,38.1318359 C126.328125,37.7744141 125.197266,37.5957031 123.931641,37.5957031 C122.736328,37.5957031 121.558594,37.8125 120.398438,38.2460938 C119.238281,38.6796875 118.265625,39.3007812 117.480469,40.109375 C116.53125,41.0820312 115.845703,42.1015625 115.423828,43.1679688 C115.001953,44.234375 114.791016,45.4472656 114.791016,46.8066406 C114.791016,48.1777344 115.078125,49.4316406 115.652344,50.5683594 C116.226562,51.7050781 116.982422,52.6601562 117.919922,53.4335938 C119.033203,54.3476562 120.383789,55.0302734 121.97168,55.4814453 C123.55957,55.9326172 125.373047,56.1582031 127.412109,56.1582031 Z M127.271484,44.6621094 L119.871094,44.6621094 C120.070312,43.5019531 120.503906,42.5849609 121.171875,41.9111328 C121.839844,41.2373047 122.689453,40.9003906 123.720703,40.9003906 C124.775391,40.9003906 125.604492,41.2402344 126.208008,41.9199219 C126.811523,42.5996094 127.166016,43.5136719 127.271484,44.6621094 L127.271484,44.6621094 Z" id="IconsofUkraine" fill="#E52937"></path>
                <g id="Ukraine" transform="translate(132.000000, 14.000000)">
                    <path d="M17.541518,30 C17.3765143,30 17.2186034,29.9689308 17.0942906,29.9127105 C14.8014101,28.8578389 5.24649712,22.6728587 2.19430064,15.8912769 C1.91503804,15.2705334 1.58109494,14.6731771 1.38238423,14.0678234 C0.207512779,10.4886869 0.53557528,7.20045888 2.17712831,4.6945469 C3.82231298,2.1820143 6.70241276,0.681818182 9.87966866,0.681818182 C13.0360191,0.681818182 16.1162601,2.92399522 17.7972827,5.52603656 C19.4783053,2.92436509 22.0466436,0.681818182 25.2026208,0.681818182 C28.3806233,0.681818182 31.2592298,2.18164443 32.9047878,4.6945469 C34.8247299,7.6242938 35.4266775,9.74631564 33.9415926,14.0678234 C31.5447982,21.0423506 20.2812526,28.8582087 17.9883721,29.9116009 C17.8644327,29.9689308 17.7057752,30 17.541518,30 Z" id="Path" fill="#F2C553"></path>
                    <path d="M34.0812128,13.6363636 C38.8698054,0.402433073 22.8167377,-4.34880629 17.7272727,4.5461557 C12.6378078,-4.34880629 -3.49570151,0.402433073 1.29289107,13.6363636 L34.0812128,13.6363636 Z" id="Path" fill="#61ADFC"></path>
                </g>
            </g>
        </g>
    </g>
</svg>