<?xml version="1.0" encoding="utf-8"?>
<!-- Generator: Adobe Illustrator 24.1.2, SVG Export Plug-In . SVG Version: 6.00 Build 0)  -->
<svg version="1.1" id="Logo" xmlns="http://www.w3.org/2000/svg" xmlns:xlink="http://www.w3.org/1999/xlink" x="0px" y="0px"
	 viewBox="0 0 568.1 254.2" style="enable-background:new 0 0 568.1 254.2;" xml:space="preserve">
<style type="text/css">
	.st0{fill:#FFFFFF;}
	.st1{fill:#0969DB;}
	.st2{fill:#E52A38;}
</style>
<g>
	<path class="st0" d="M49.7,93.7c0,0-2.9,51.2-2.4,58.9c0.5,7.7,120.9,52,120.9,52l269.5-8.5l7.8-1.1c0,0,6.9-34.5-0.3-51
		s-21.7-36.3-21.7-36.3l-89.6-34.8c0,0-15.3-0.1-26.9,0c-11.6,0.1-89.9,11.2-89.9,11.2L80.6,81.9l-23,6.2L49.7,93.7z"/>
	<g>
		<g>
			<g>
				<g>
					<path class="st1" d="M473.7,171.3c-4.9-2.7-48.2-27.4-48.2-54.9c0-17.2,14-31.2,31.2-31.2l0.2,0c7.5,0,14.6,2.7,20.2,7.4
						c5.6-4.7,12.7-7.4,20.2-7.4c17.2,0.1,31.2,14.1,31.3,31.2c0,27.9-43.3,52.2-48.2,54.9l-3.4,1.8L473.7,171.3z"/>
					<path class="st0" d="M457,92.1c8.1,0,15.7,4.1,20.1,10.9c4.5-6.8,12.1-10.9,20.3-10.9c0,0,0,0,0.1,0
						c13.4,0.1,24.2,10.9,24.2,24.2c0,24.5-44.6,48.7-44.6,48.7s-44.6-24.6-44.6-48.7c0-13.4,10.9-24.2,24.2-24.2
						C456.9,92.1,456.9,92.1,457,92.1 M457,78.1l-0.2,0v0c-21.1,0-38.2,17.2-38.2,38.2c0,14.4,9.2,29.3,27.4,44.2
						c12,9.9,23.9,16.5,24.4,16.8l6.7,3.7l6.7-3.7c0.5-0.3,12.4-6.8,24.5-16.7c18.2-14.9,27.4-29.8,27.4-44.4v0l0,0
						c-0.1-21-17.2-38.1-38.2-38.2l-0.1,0c-7.3,0-14.3,2-20.2,5.8C471.2,80.2,464.3,78.1,457,78.1L457,78.1z"/>
				</g>
			</g>
		</g>
		<g>
			<path class="st0" d="M504.1,132.4l-13.5-17.1l-5.4,6.8l-8.1-15.4l-8.1,15.4l-5.4-6.8l-13.5,17.1c0,2.3,0.9,4.4,2.6,6
				c1.7,1.6,4,2.5,6.4,2.5c1.6,0,3.1-0.4,4.5-1.1c0,0,0,0,0,0c0.7-0.4,1.4-0.7,2.2-0.9c2.3-0.6,4.8-0.3,6.8,0.9
				c1.4,0.8,2.9,1.1,4.5,1.1c0,0,0,0,0,0c1.6,0,3.1-0.4,4.5-1.1c2.1-1.1,4.5-1.4,6.8-0.9c0.8,0.2,1.5,0.5,2.2,0.9c0,0,0,0,0,0
				c1.4,0.7,2.9,1.1,4.5,1.1c2.4,0,4.7-0.9,6.4-2.5C503.2,136.8,504.1,134.7,504.1,132.4"/>
			<path class="st0" d="M453.3,141.7c0.6,1.2,1.3,2.3,2,3.4c0,0,0,0,0,0c1.9,0.8,4.1,1,6.1,0.5c0.8-0.2,1.5-0.5,2.2-0.9c0,0,0,0,0,0
				c1.4-0.7,2.9-1.1,4.5-1.1c0,0,0,0,0,0c1.6,0,3.1,0.4,4.5,1.1c2.1,1.1,4.5,1.4,6.8,0.9c0.8-0.2,1.5-0.5,2.2-0.9c0,0,0,0,0,0
				c1.4-0.7,2.9-1.1,4.5-1.1c0,0,0,0,0,0c1.6,0,3.1,0.4,4.5,1.1c2.1,1.1,4.5,1.4,6.8,0.9c0.5-0.1,1-0.3,1.4-0.5l0,0
				c0.7-1.1,1.4-2.2,2-3.4c0,0,0,0,0,0c-0.5,0.2-0.9,0.4-1.3,0.6c0,0,0,0,0,0c-0.7,0.4-1.4,0.7-2.2,0.9c-2.3,0.6-4.8,0.3-6.8-0.9
				c-1.4-0.8-2.9-1.1-4.5-1.1c0,0,0,0,0,0c-1.6,0-3.1,0.4-4.5,1.1c0,0,0,0,0,0c-0.7,0.4-1.4,0.7-2.2,0.9c-2.3,0.6-4.8,0.3-6.8-0.9
				c-1.4-0.8-2.9-1.1-4.5-1.1c0,0,0,0,0,0c-1.6,0-3.1,0.4-4.5,1.1c0,0,0,0,0,0c-0.7,0.4-1.4,0.7-2.2,0.9c-2.3,0.6-4.8,0.3-6.8-0.9
				C454.1,142,453.7,141.8,453.3,141.7C453.3,141.7,453.3,141.7,453.3,141.7"/>
			<path class="st0" d="M495.5,148.2c-1,1.3-2.1,2.5-3.2,3.6c-4.3,4.3-9.5,7.5-15.2,9.5h0c-5.7-1.9-10.9-5.2-15.2-9.5
				c-1.2-1.2-2.2-2.4-3.2-3.6c0,0,0,0,0,0c1.2,0.2,2.4,0.1,3.6-0.2c0.7-0.2,1.4-0.5,2.1-0.9c0,0,0,0,0,0c1.3-0.7,2.8-1.1,4.3-1.1
				c0,0,0,0,0,0c1.5,0,3,0.4,4.3,1.1c2,1.1,4.3,1.4,6.5,0.9c0.7-0.2,1.4-0.5,2.1-0.9c0,0,0,0,0,0c1.3-0.7,2.8-1.1,4.3-1.1
				c0,0,0,0,0,0c1.5,0,3,0.4,4.3,1.1C491.6,148.2,493.6,148.5,495.5,148.2C495.5,148.2,495.5,148.2,495.5,148.2"/>
		</g>
	</g>
	<g>
		<g>
			<path class="st0" d="M74,54.4c1.7,0.2,3.1,0.5,4.1,0.8c1,0.3,1.8,0.8,2.2,1.5c0.9,1.4,1.3,2.8,1.3,4.2c0,1.3-0.1,3.1-0.3,5.2
				c-0.4,5.4-0.7,10.7-0.7,16c-0.1,5.2-0.1,10,0,14.2c0.1,4.3,0.2,8.9,0.4,14c-0.1,1.5-0.3,2.8-0.7,3.7c-0.4,0.9-1.2,1.8-2.4,2.6
				c-1.2,0.8-2.9,1.1-5.2,1.1c-2.3,0-4-0.3-5.2-0.8c-1.2-0.5-2-1.2-2.5-2c-0.4-0.8-0.7-1.7-0.9-2.8c-0.2-2.5-0.3-5.6-0.4-9.3
				c-0.1-3.7-0.1-7.7-0.1-12c0-4.3,0.1-8.4,0.2-12.4c0.1-4,0.2-7.6,0.4-10.7c0.1-3.1,0.3-5.4,0.4-6.7c0.2-1.7,0.8-3.1,1.8-4
				c1-0.9,2-1.5,3.3-1.9C70.8,54.7,72.3,54.4,74,54.4 M74.6,40.3l-1.2,0.1c-2.9,0.1-5.5,0.5-7.8,1.2c-3.3,1-6.3,2.7-8.8,5.1
				c-2.4,2.2-5.3,6.2-6.1,12.5l0,0.1l0,0.1c-0.2,1.7-0.3,4.1-0.5,7.5c-0.1,3.1-0.3,6.7-0.4,11c-0.1,4.1-0.2,8.4-0.2,12.8
				c0,4.4,0,8.5,0.1,12.3c0.1,4.1,0.2,7.4,0.5,10.2l0,0.3l0,0.3c0.4,3,1.3,5.7,2.7,8.1c1.9,3.3,4.9,5.9,8.8,7.6c3.1,1.4,6.6,2,11,2
				c5,0,9.3-1.1,12.8-3.4c3.5-2.3,6.1-5.2,7.6-8.7c1.1-2.5,1.7-5.4,1.9-8.7l0-0.6l0-0.6c-0.2-5-0.3-9.6-0.4-13.7
				c-0.1-4.1-0.1-8.8,0-13.8c0.1-4.9,0.3-10,0.7-15.1l0-0.1l0-0.1c0.1-2.2,0.2-4.2,0.3-5.7c0.1-4.1-1-8-3.3-11.8
				c-2.3-3.8-5.9-6.5-10.4-7.8c-1.7-0.5-3.7-0.9-6.2-1.2L74.6,40.3L74.6,40.3z"/>
		</g>
		<g>
			<path class="st0" d="M116.9,72.9c2.2,0,4.3,0.4,6.4,1.2c2.3,0.9,4.5,2.1,6.4,3.6c1.9,1.5,3.4,3.1,4.6,4.8c1.2,1.7,1.8,3.2,2,4.7
				c0.1,1.4-0.2,2.5-0.9,3.3c-0.7,0.8-1.6,1.4-2.7,1.7c-1.1,0.3-2,0.5-2.8,0.6c-0.8,0.1-1.3,0.1-1.3,0.1c-2.7,0-4.6-0.3-5.8-1
				c-1.2-0.7-2-1.4-2.3-2.1c-0.3-0.7-0.5-1.2-0.5-1.4c0-0.2-0.1-0.7-0.4-1.3c-0.2-0.7-0.6-1.3-1.2-1.9c-0.6-0.6-1.3-0.9-2.2-0.9
				c0,0-0.1,0-0.1,0c-0.8,0-1.7,0.7-2.5,2c-0.8,1.4-1.5,3-2.1,4.9c-0.6,1.9-0.9,3.7-1,5.5c-0.1,1.7,0.1,3.5,0.6,5.3
				c0.4,1.8,1.1,3.3,2,4.5c0.9,1.2,2,1.8,3.2,1.9c0.1,0,0.2,0,0.3,0c1.7,0,3-0.7,3.8-2c0.3-0.9,0.7-1.7,1.4-2.3
				c0.7-0.6,1.7-1.1,3.2-1.5c1.2-0.3,2.9-0.5,5-0.5c0.4,0,0.8,0,1.2,0c2.7,0.1,4.5,0.4,5.5,1.1c1,0.7,1.5,1.4,1.5,2.2
				c0,0.8-0.3,1.8-1,2.9c-1.9,1.9-3.8,3.4-5.6,4.7c-1.8,1.2-4,2.3-6.7,3.3c-2.6,0.9-5.6,1.4-9,1.4c-6.7,0-12-1.9-15.9-5.8
				c-3.9-3.8-6-9.3-6.3-16.3c-0.1-3.5,0.4-6.6,1.8-9.3c1.3-2.8,3.1-5.1,5.3-7c2.2-1.9,4.7-3.4,7.3-4.5c2.7-1,5.3-1.6,7.9-1.8
				C116.2,72.9,116.6,72.9,116.9,72.9 M116.9,58.9c-0.6,0-1.2,0-1.8,0.1c-4,0.2-8.1,1.1-12.2,2.7c-4.2,1.6-8,4-11.4,6.9
				c-3.7,3.2-6.6,7.1-8.7,11.6c-2.3,4.8-3.3,10.2-3.1,15.9c0.4,10.6,3.9,19.3,10.4,25.7c4.5,4.5,12.7,9.8,25.7,9.8
				c5,0,9.6-0.8,13.7-2.2c3.7-1.3,7-2.9,9.8-4.8c2.5-1.7,5.1-3.8,7.6-6.3l1.3-1.3l0.9-1.6c2.1-3.5,3.1-7.1,2.9-10.7
				c-0.2-3.4-1.4-6.6-3.4-9.2c1.4-2.9,1.9-6.2,1.6-9.7c-0.4-3.8-1.9-7.7-4.4-11.3c-1.9-2.7-4.4-5.3-7.3-7.6c-3-2.4-6.4-4.4-10.1-5.8
				C124.7,59.6,120.9,58.9,116.9,58.9L116.9,58.9z"/>
		</g>
		<g>
			<path class="st0" d="M170.4,73.4c1.8,0,3.3,0.3,4.3,0.9c1.4,0.8,2.2,1.3,2.5,1.4c0.7,0.4,1.6,1,2.8,1.8c2.1,0.7,3.8,1.8,5.2,3.1
				c1.4,1.3,2.7,3.4,3.8,6.2c1.2,2.8,1.9,6.7,2.1,11.5c0.1,3.3-0.3,6-1.4,8.2c-1.1,2.2-2.6,4-4.4,5.4c-1.8,1.4-3.8,2.5-5.9,3.3
				c-2.1,0.8-4.1,1.3-6,1.6c-1.9,0.3-4,0.5-6.5,0.7c-2.7,0-5-0.2-7-0.7c-2-0.5-4-1.4-5.9-2.8c-2-1.4-3.6-3.5-4.9-6.2
				c-1.3-2.8-1.8-6.4-1.7-11c0.1-4.6,0.9-8.3,2.4-11.2c1.5-2.9,3.3-5.2,5.4-6.9c2.1-1.7,4.2-2.9,6.3-3.6c2.1-0.7,4.6-1.3,7.4-1.6
				C169.3,73.4,169.9,73.4,170.4,73.4 M168.7,109.1c0.4,0,1.1-0.2,2-0.6c0.9-0.4,1.8-1.3,2.5-2.8c0.8-1.4,1.1-3.7,1-6.8
				c-0.1-2.6-0.3-4.7-0.8-6.3c-0.4-1.6-1-3-1.8-4.3c-0.7-1.3-1.6-2.7-2.5-4.2c-1.7,2.3-3,4.5-3.9,6.6c-0.9,2.1-1.3,4.6-1.3,7.4
				c0,2.8,0.3,4.9,0.9,6.5c0.6,1.6,1.3,2.7,2,3.4C167.7,108.7,168.3,109.1,168.7,109.1 M170.4,59.4c-0.9,0-1.8,0-2.7,0.1l-0.3,0
				l-0.3,0c-3.8,0.5-7.1,1.2-10.2,2.3c-3.6,1.2-7.1,3.2-10.4,5.8c-3.7,2.9-6.8,6.8-9.2,11.6c-2.4,4.8-3.7,10.5-3.9,17.1
				c-0.2,6.8,0.8,12.5,3,17.3c2.3,4.9,5.4,8.9,9.4,11.7c3.5,2.5,7.1,4.2,10.9,5.1c3.1,0.7,6.4,1.1,10.2,1.1h0.4l0.4,0
				c2.8-0.2,5.4-0.4,7.7-0.8c2.8-0.4,5.7-1.2,8.6-2.2c3.5-1.3,6.7-3,9.7-5.3c3.5-2.7,6.3-6.2,8.4-10.3c2.2-4.3,3.1-9.4,2.9-15
				c-0.3-6.6-1.3-11.9-3.1-16.3c-1.9-4.6-4.2-8.2-7-10.9c-2.3-2.3-5.1-4.1-8.2-5.4c-1.1-0.8-2.1-1.4-3-1.8c-0.1-0.1-0.6-0.3-2-1.2
				C178.4,60.4,174.6,59.4,170.4,59.4L170.4,59.4z"/>
		</g>
		<g>
			<path class="st0" d="M208.3,73.2c1.7,0,3.1,0.2,4.1,0.7c1.2,0.5,2,1.1,2.5,1.8c0.5,0.7,0.9,1.6,1.1,2.7c2.5-1.4,4.8-2.4,6.9-3.1
				c2-0.7,4.2-1.2,6.5-1.3c0.3,0,1,0,2,0c1,0,2.1,0.2,3.3,0.7c1.2,0.5,2.4,1.4,3.6,2.7c1.2,1.3,2.2,3.2,3,5.7
				c0.8,2.5,1.3,5.8,1.4,9.8c0.2,5.1,0.4,9.2,0.5,12.5c0.1,3.3,0,5.8-0.3,7.5c-0.3,1.8-1,3-2.1,3.7c-1.1,0.7-2.7,1-5,1
				c-2.2,0-3.8-0.3-4.9-1c-1-0.7-1.7-1.4-2-2.3c-0.3-0.9-0.4-1.7-0.4-2.4c0-0.4,0.1-1.6,0.2-3.5c0.1-1.9,0.2-4.1,0.3-6.6
				c0.1-2.5,0.1-5-0.1-7.4c-0.1-2.4-0.4-4.4-0.8-6c-0.4-1.5-1.1-2.2-2-2.2c0,0-0.1,0-0.1,0c-1.2,0.1-2.3,0.5-3.3,1.4
				c-1,0.8-1.9,1.8-2.6,2.8c-0.8,1.1-1.6,2.3-2.4,3.9l1,16.4c0,1.4-0.2,2.6-0.6,3.5c-0.4,0.9-1.2,1.7-2.3,2.4
				c-1.1,0.7-2.8,1.1-5,1.1c-1.8,0-3.3-0.1-4.4-0.4c-1.1-0.3-2.2-0.9-3-1.7c-0.9-0.9-1.4-2.1-1.6-3.8c-0.1-1.4-0.2-3.3-0.4-5.9
				c-0.2-2.5-0.4-5.3-0.7-8.3c-0.2-3-0.5-5.9-0.7-8.6c-0.2-2.7-0.4-5.8-0.7-9.3c0.1-1.2,0.4-2.2,0.9-3c0.4-0.8,1.2-1.5,2.4-2.2
				c1.1-0.7,2.7-1,4.8-1.1C207.8,73.2,208.1,73.2,208.3,73.2 M208.3,59.2c-0.4,0-0.8,0-1.2,0c-4.4,0.2-8.1,1.1-11.3,2.9
				c-3.4,1.9-5.9,4.4-7.6,7.5c-1.4,2.4-2.2,5.2-2.6,8.4l-0.1,1.3l0.1,1.3c0.3,3.5,0.5,6.5,0.7,9.2c0.2,2.7,0.4,5.6,0.7,8.6
				c0.2,3,0.5,5.8,0.7,8.3c0.2,2.4,0.3,4.2,0.4,5.4l0,0.2l0,0.2c0.5,6.4,3.4,10.4,5.8,12.7c2.7,2.6,5.8,4.4,9.3,5.3
				c2.3,0.6,4.8,0.9,7.8,0.9c4.9,0,9-1.1,12.4-3.2c0,0,0.1,0.1,0.1,0.1c3.3,2.1,7.4,3.1,12.3,3.1c5.1,0,9.2-1.1,12.6-3.3
				c4.4-2.8,7.3-7.4,8.3-13c0.5-2.8,0.6-6.1,0.5-10.4c-0.1-3.3-0.3-7.5-0.5-12.6c-0.2-5.4-0.9-9.9-2.1-13.7c-1.5-4.5-3.5-8-6.1-10.8
				c-2.7-2.9-5.6-4.9-8.8-6.2c-2.9-1.1-5.7-1.7-8.4-1.7h-2h-0.4l-0.4,0c-3.2,0.2-6.3,0.8-9.2,1.7c-0.4-0.2-0.8-0.4-1.3-0.6
				C215.1,59.8,212,59.2,208.3,59.2L208.3,59.2z"/>
		</g>
		<g>
			<path class="st0" d="M276.2,73.8c4.3,0,7.8,0.3,10.3,1c3,0.8,5.1,1.7,6.4,2.8c1.3,1.1,2.2,2.5,2.7,4.1c0,0.9-0.1,1.9-0.3,2.9
				c-0.2,1-0.8,1.8-1.8,2.4c-0.9,0.6-2.4,0.8-4.4,0.8c-0.2,0-0.5,0-0.7,0c-1.9-0.1-3.4-0.3-4.3-0.5c-1-0.3-1.7-0.6-2.1-1
				c-0.4-0.4-0.9-0.8-1.3-1.2c-0.4-0.4-1.1-0.8-2-1.1c-0.9-0.3-2.2-0.5-4.1-0.5c-0.3,0-0.7,0-1,0c-1.8,0-3.2,0.2-4.1,0.5
				c-1.1,0.4-1.9,0.9-2.3,1.5c-0.4,0.6-0.6,1.3-0.7,2.1c0.3,1.2,1.1,2,2.3,2.6c1.2,0.6,3.4,0.9,6.6,1c6,0.2,10.6,0.8,13.8,1.8
				c3.2,1,5.5,2.1,6.8,3.4c1.3,1.3,2.1,2.6,2.4,3.9c0.2,1.3,0.4,2.3,0.4,3c0,0.7-0.2,1.8-0.7,3.4c-0.4,1.5-1.4,3.1-2.8,4.8
				c-1.4,1.7-3.7,3.1-6.7,4.3c-3,1.2-7,1.9-12,2.1c-0.8,0-1.6,0-2.4,0c-4.3,0-7.7-0.3-10.2-1c-3-0.8-5.1-1.7-6.4-2.8
				c-1.3-1.1-2.2-2.5-2.7-4.1c0-1,0.1-2,0.4-2.9c0.2-0.9,0.9-1.7,1.9-2.3c0.9-0.6,2.3-0.8,4.3-0.8c0.2,0,0.5,0,0.7,0
				c2,0.1,3.5,0.3,4.4,0.5c0.9,0.3,1.6,0.6,2.1,1c0.5,0.4,0.9,0.8,1.3,1.2c0.4,0.4,1.1,0.8,2,1.1c0.9,0.3,2.2,0.5,4,0.5
				c0.4,0,0.7,0,1,0c1.8,0,3.1-0.2,4.1-0.5c1.1-0.4,1.9-0.9,2.3-1.5c0.4-0.6,0.6-1.3,0.6-2.1c-0.3-1.2-1-2.2-2.2-2.8
				c-1.2-0.6-3.4-1-6.6-1c-5.2-0.1-9.2-0.7-12.1-1.6c-2.9-0.9-4.9-2.1-6.2-3.4c-1.2-1.3-1.9-2.6-2.2-3.9c-0.3-1.3-0.4-2.3-0.4-3
				c0-0.7,0.1-1.8,0.3-3.4c0.2-1.5,0.9-3.1,2-4.8c1.1-1.7,3-3.1,5.7-4.3c2.7-1.2,6.6-1.9,11.6-2.1C274.6,73.8,275.4,73.8,276.2,73.8
				 M276.2,59.8c-0.9,0-1.8,0-2.8,0c-7,0.2-12.6,1.3-17,3.3c-5.2,2.3-9.1,5.5-11.6,9.4c-2.3,3.4-3.7,7-4.2,10.6
				c-0.3,2.2-0.4,3.8-0.4,5.3c0,1.8,0.2,3.7,0.7,6c0.4,1.8,1,3.6,2,5.3c-0.6,1.1-1.1,2.4-1.4,3.6c-0.5,2.1-0.8,4.2-0.8,6.4v2.3
				l0.7,2.1c1.4,4.1,3.7,7.6,7,10.4c2.9,2.5,6.7,4.3,11.9,5.7c3.7,1,8.3,1.5,13.8,1.5c0.9,0,1.8,0,2.8,0c6.8-0.2,12.4-1.2,17-3.1
				c5.1-2.1,9-4.7,11.9-8.1c2.8-3.2,4.7-6.5,5.7-10c0.9-2.9,1.2-5.2,1.2-7.3c0-1.6-0.2-3.4-0.6-5.6c-0.6-2.9-1.8-5.6-3.6-8.1
				c0.2-0.6,0.4-1.2,0.5-1.8c0.4-1.9,0.6-3.9,0.6-5.8v-2.3l-0.7-2.1c-1.4-4.1-3.7-7.6-6.9-10.4c-2.9-2.5-6.7-4.3-11.8-5.7
				C286.3,60.3,281.8,59.8,276.2,59.8L276.2,59.8z"/>
		</g>
		<g>
			<path class="st0" d="M362.1,73.4c1.8,0,3.3,0.3,4.3,0.9c1.4,0.8,2.2,1.3,2.5,1.4c0.7,0.4,1.6,1,2.8,1.8c2.1,0.7,3.8,1.8,5.2,3.1
				c1.4,1.3,2.7,3.4,3.8,6.2c1.2,2.8,1.9,6.7,2.1,11.5c0.1,3.3-0.3,6-1.4,8.2c-1.1,2.2-2.6,4-4.4,5.4c-1.8,1.4-3.8,2.5-5.9,3.3
				c-2.1,0.8-4.1,1.3-6,1.6c-1.9,0.3-4,0.5-6.5,0.7c-2.7,0-5-0.2-7-0.7c-2-0.5-4-1.4-5.9-2.8c-2-1.4-3.6-3.5-4.9-6.2
				c-1.3-2.8-1.8-6.4-1.7-11c0.1-4.6,0.9-8.3,2.4-11.2c1.5-2.9,3.3-5.2,5.4-6.9c2.1-1.7,4.2-2.9,6.3-3.6c2.1-0.7,4.6-1.3,7.4-1.6
				C361.1,73.4,361.6,73.4,362.1,73.4 M360.4,109.1c0.4,0,1.1-0.2,2-0.6c0.9-0.4,1.8-1.3,2.5-2.8c0.8-1.4,1.1-3.7,1-6.8
				c-0.1-2.6-0.3-4.7-0.8-6.3c-0.4-1.6-1-3-1.8-4.3c-0.7-1.3-1.6-2.7-2.5-4.2c-1.7,2.3-3,4.5-3.9,6.6c-0.9,2.1-1.3,4.6-1.3,7.4
				c0,2.8,0.3,4.9,0.9,6.5c0.6,1.6,1.3,2.7,2,3.4C359.5,108.7,360,109.1,360.4,109.1 M362.1,59.4c-0.9,0-1.8,0-2.7,0.1l-0.3,0
				l-0.3,0c-3.8,0.5-7.1,1.2-10.2,2.3c-3.6,1.2-7.1,3.2-10.4,5.8c-3.7,2.9-6.8,6.8-9.2,11.6c-2.4,4.8-3.7,10.5-3.9,17.1
				c-0.2,6.8,0.8,12.5,3,17.3c2.3,4.9,5.4,8.9,9.4,11.7c3.5,2.5,7.1,4.2,10.9,5.1c3.1,0.7,6.4,1.1,10.2,1.1h0.4l0.4,0
				c2.8-0.2,5.4-0.4,7.7-0.8c2.8-0.4,5.7-1.2,8.6-2.2c3.5-1.3,6.7-3,9.7-5.3c3.5-2.7,6.3-6.2,8.4-10.3c2.2-4.3,3.1-9.4,2.9-15
				c-0.3-6.6-1.3-11.9-3.1-16.3c-1.9-4.6-4.2-8.2-7-10.9c-2.3-2.3-5.1-4.1-8.2-5.4c-1.1-0.8-2.1-1.4-3-1.8c-0.1-0.1-0.6-0.3-2-1.2
				C370.2,60.4,366.4,59.4,362.1,59.4L362.1,59.4z"/>
		</g>
		<g>
			<path class="st0" d="M411.4,53.7c2.3,0,4.9,0.3,7.9,0.9c1.4,0.7,2.4,1.3,3.1,1.8c0.7,0.6,1.1,1.2,1.1,1.9
				c0.1,0.7-0.5,1.4-1.8,2.1c-1.7,0.9-3.3,1.6-5,2.1c-1.7,0.5-3.1,1.1-4.4,1.7c-1.3,0.7-2.3,1.9-3,3.6c-0.8,2.1-1.4,4-1.8,5.8
				c-0.3,1.7-0.5,3.7-0.5,5.8c0,2.1,0.1,4.7,0.4,7.9c2.4-0.7,4.4-1,6-1.2c0.4,0,0.8-0.1,1.2-0.1c1.2,0,2.3,0.2,3.4,0.5
				c1.4,0.4,2.3,1.4,2.7,2.8c0.4,1.4,0.1,2.5-1,3.4c-1.1,0.9-2.5,1.5-4.1,2c-1.7,0.5-3.8,0.9-6.4,1.2l4.7,15.3
				c0.3,1.2,0.3,2.3,0.1,3.1c-0.2,0.8-0.8,1.6-1.9,2.2c-1,0.6-2.7,0.9-5.1,0.9c-1.5,0-2.8-0.2-4-0.6c-1.1-0.4-2.3-1.1-3.4-2.2
				c-1.1-1-2-2.6-2.6-4.6c-0.6-2-1.4-4.5-2.3-7.5c-0.9-3.1-1.7-6.4-2.4-10.1c-0.7-3.7-1.1-7.4-1.2-11.3c-0.1-3.9,0.3-7.6,1.2-11.2
				c0.9-3.6,2.5-6.8,4.9-9.7c2.1-2.5,4.4-4.3,6.9-5.2C406.7,54.2,409.1,53.7,411.4,53.7 M411.4,39.7c-3.9,0-8,0.8-12.1,2.3
				c-4.8,1.8-9.1,5-12.8,9.4c-3.7,4.4-6.2,9.5-7.6,15.2c-1.2,4.8-1.7,9.9-1.6,15c0.1,4.6,0.6,9.1,1.4,13.5c0.8,4.1,1.7,7.9,2.7,11.4
				c0.9,3.1,1.7,5.7,2.4,7.8c1.3,4.3,3.5,7.9,6.3,10.6c2.5,2.4,5.4,4.2,8.4,5.2c2.6,0.9,5.5,1.4,8.6,1.4c5,0,9-0.9,12.2-2.9
				c4.2-2.5,7.2-6.4,8.3-10.8c0.7-3,0.7-6.2,0-9.5l-0.1-0.5l-0.2-0.5l-0.7-2.2c0.6-0.4,1.2-0.8,1.8-1.3c5.6-4.4,7.8-11.4,5.8-18.3
				c-1.4-4.9-4.7-8.9-9.1-11.1c1.2-0.5,2.4-1.1,3.6-1.8l0.1,0l0.1,0c8.9-5.2,8.9-13.2,8.6-15.6l0,0l0,0c-0.4-4.3-2.6-8.3-6-11.2
				c-1.7-1.4-3.7-2.6-6.1-3.8l-1.6-0.7l-1.7-0.3C418.1,40.1,414.6,39.7,411.4,39.7L411.4,39.7z"/>
		</g>
	</g>
	<g>
		<g>
			<path class="st0" d="M82.9,133.6c3,0,5.8,0.4,8.6,1.2c3,0.9,5.5,2.2,7.5,4c2,1.8,3.2,4.1,3.5,6.9c0.2,2.1-0.1,3.7-0.9,4.7
				c-0.8,1.1-1.8,1.8-2.9,2.2c-1.1,0.4-2.6,0.6-4.4,0.7c-2.3,0-4.1-0.3-5.4-0.9c-1.2-0.6-2.1-1.3-2.6-2.1c-0.5-0.8-0.8-1.5-0.9-2.2
				c-0.1-0.7-0.1-1.1-0.1-1.2c0-0.4-0.1-1-0.4-1.8c-0.2-0.8-0.9-1.2-2.1-1.2c-1.9,0-3.6,0.6-5.1,1.8c-1.5,1.2-2.3,3-2.4,5.4
				c-0.1,2.4,0.4,4.5,1.8,6.2c1.3,1.7,3.9,2.6,7.8,2.7c1.9,0,4,0.3,6.1,0.9c2.1,0.6,4.2,1.5,6,2.8c1.9,1.3,3.4,3,4.5,5.1
				c1.1,2.1,1.7,4.8,1.7,8c-0.1,6.4-1.7,11.3-4.9,14.8c-3.2,3.5-8.4,5.2-15.8,5.2c-4.9,0-8.8-0.6-11.8-1.9c-3-1.3-5.1-2.8-6.5-4.5
				c-1.3-1.7-2.1-3.3-2.1-4.7c-0.1-1.4,0-2.7,0.3-4c0.2-1.3,1-2.4,2.2-3.4c1.2-0.9,3.2-1.5,5.8-1.7c0.7-0.1,1.3-0.1,1.8-0.1
				c1.8,0,3.2,0.3,4,0.8c1.2,0.7,1.9,1.5,2.2,2.3c0.3,0.9,0.5,1.4,0.5,1.6c0,0.2,0.1,0.7,0.3,1.6c0.2,0.8,0.5,1.6,1,2.4
				c0.5,0.8,1.3,1.1,2.2,1.1c1.4,0,2.7-0.6,3.7-1.8c1-1.2,1.7-3.2,2-6c0.5-5.4-2.1-8.1-7.8-8.1c-1.4,0-3.2-0.2-5.3-0.7
				c-2.2-0.5-4.3-1.3-6.5-2.6c-2.1-1.3-3.9-3.1-5.4-5.4c-1.4-2.3-2.1-5.4-2.1-9.1c0.1-3.8,0.7-6.9,2-9.3c1.2-2.4,2.9-4.3,4.9-5.6
				c2-1.3,4.3-2.3,6.7-2.9c2.4-0.6,4.9-0.9,7.3-1C82.4,133.6,82.7,133.6,82.9,133.6 M82.9,119.6c-0.3,0-0.7,0-1,0l-0.1,0l-0.1,0
				c-3.3,0.1-6.7,0.6-10.1,1.3c-4,1-7.8,2.6-11.2,4.8c-4.1,2.7-7.3,6.4-9.7,11c-2.2,4.3-3.4,9.5-3.5,15.4
				c-0.1,6.5,1.3,12.1,4.2,16.8c0.3,0.5,0.7,1.1,1.1,1.6c-2,2.5-3.3,5.3-3.8,8.4c-0.4,2.3-0.6,4.8-0.5,7.3c0.2,4.3,1.9,8.5,5,12.5
				c2.8,3.6,6.9,6.6,12,8.8c4.8,2,10.4,3,17.3,3c11.4,0,20.2-3.3,26.2-9.8c5.5-6.1,8.4-14.2,8.5-24.1l0-0.1v-0.1
				c0-5.5-1.1-10.4-3.3-14.6c-0.5-0.9-1-1.8-1.6-2.6c0.2-0.2,0.3-0.4,0.5-0.6c2-2.7,4.3-7.4,3.6-14.5c-0.6-6.4-3.5-11.9-8.2-16.1
				c-3.6-3.1-7.9-5.4-12.9-6.9C91.4,120.2,87.2,119.6,82.9,119.6L82.9,119.6z"/>
		</g>
		<g>
			<path class="st0" d="M121.4,131.2c1.8,0.1,3.3,0.3,4.4,0.6c1.2,0.3,2.2,0.9,3.1,1.7c0.9,0.8,1.3,1.9,1.3,3.4c0,0.9,0,2.9,0.1,5.8
				c0.1,2.9,0.1,6.3,0.2,10.3c0.1,3.9,0.2,8,0.3,12.2c0.1,4.2,0.2,8.1,0.3,11.7c0.1,3.6,0.1,7.7,0.2,12.2c0,1.5-0.2,2.8-0.6,3.9
				c-0.4,1-1.2,2-2.4,2.7c-1.2,0.8-2.9,1.1-5.2,1.1c-3,0-5.2-0.4-6.6-1.2c-1.4-0.8-2.2-1.8-2.5-2.8c-0.3-1-0.4-1.9-0.4-2.4
				c0.1-0.3,0.1-1.6,0.1-3.8c0-2.2,0-5.1-0.1-8.5c0-3.4-0.1-7.1-0.2-11c-0.1-3.9-0.1-7.8-0.2-11.6c-0.1-3.8-0.2-7.2-0.3-10.2
				c-0.1-3-0.2-5.2-0.3-6.7c-0.1-2,0.3-3.5,1.4-4.6c1.1-1,2.3-1.7,3.7-2C119.4,131.5,120.6,131.3,121.4,131.2 M121.2,117.2l-0.8,0.1
				c-1.6,0.1-3.4,0.4-5.5,0.9c-3.9,0.9-7.3,2.7-10.2,5.5c-4.1,3.9-6.1,9.4-5.7,15.5c0.1,1.5,0.2,3.7,0.2,6.4c0.1,2.9,0.2,6.3,0.3,10
				l0.1,3.9l0.1,7.6c0.1,3.9,0.1,7.5,0.2,10.9c0,3.5,0.1,6.2,0.1,8.3c0,1.3,0,2,0,2.3c-0.3,2.5,0,5.1,0.9,7.9
				c0.9,3.1,3.2,7.5,8.7,10.8c3.6,2.2,8.2,3.3,13.8,3.3c5,0,9.3-1.1,12.8-3.4c3.6-2.3,6.3-5.6,7.8-9.3c1.1-2.7,1.6-5.7,1.6-9v-0.1
				l0-0.1c-0.1-4.5-0.1-8.6-0.2-12.2c-0.1-3.7-0.2-7.6-0.3-11.8c-0.1-4.3-0.2-8.3-0.3-12.1c-0.1-4-0.1-7.4-0.2-10.3
				c-0.1-3.6-0.1-4.9-0.1-5.4c0-5.4-2.1-10.4-6-13.8c-2.5-2.2-5.4-3.8-8.7-4.7c-2.2-0.6-4.7-1-7.6-1.1L121.2,117.2L121.2,117.2z"/>
		</g>
		<g>
			<path class="st0" d="M164.3,152.4c1.8,0,3.3,0.3,4.3,0.9c1.4,0.8,2.2,1.3,2.5,1.4c0.7,0.4,1.6,1,2.8,1.8c2.1,0.7,3.8,1.8,5.2,3.1
				c1.4,1.3,2.7,3.4,3.8,6.2c1.2,2.8,1.9,6.7,2.1,11.5c0.1,3.3-0.3,6-1.4,8.2c-1.1,2.2-2.6,4-4.4,5.4c-1.8,1.4-3.8,2.5-5.9,3.3
				c-2.1,0.8-4.1,1.3-6,1.6c-1.9,0.3-4,0.5-6.5,0.7c-2.7,0-5-0.2-7-0.7c-2-0.5-4-1.4-5.9-2.8c-2-1.4-3.6-3.5-4.9-6.2
				c-1.3-2.8-1.8-6.4-1.7-11c0.1-4.6,0.9-8.3,2.4-11.2c1.5-2.9,3.3-5.2,5.4-6.9c2.1-1.7,4.2-2.9,6.3-3.6c2.1-0.7,4.6-1.3,7.4-1.6
				C163.2,152.4,163.8,152.4,164.3,152.4 M162.6,188.1c0.4,0,1.1-0.2,2-0.6c0.9-0.4,1.8-1.3,2.5-2.8c0.8-1.4,1.1-3.7,1-6.8
				c-0.1-2.6-0.3-4.7-0.8-6.3c-0.4-1.6-1-3-1.8-4.3c-0.7-1.3-1.6-2.7-2.5-4.2c-1.7,2.3-3,4.5-3.9,6.6c-0.9,2.1-1.3,4.6-1.3,7.4
				c0,2.8,0.3,4.9,0.9,6.5c0.6,1.6,1.3,2.7,2,3.4C161.6,187.7,162.2,188.1,162.6,188.1 M164.3,138.4L164.3,138.4L164.3,138.4
				c-0.9,0-1.8,0-2.7,0.1l-0.3,0l-0.3,0c-3.8,0.5-7.1,1.2-10.2,2.3c-3.6,1.2-7.1,3.2-10.4,5.8c-3.7,2.9-6.8,6.8-9.2,11.6
				c-2.4,4.8-3.7,10.5-3.9,17.1c-0.2,6.8,0.8,12.5,3,17.3c2.3,4.9,5.4,8.9,9.4,11.7c3.5,2.5,7.1,4.2,10.9,5.1
				c3.1,0.7,6.4,1.1,10.2,1.1h0.4l0.4,0c2.8-0.2,5.4-0.4,7.7-0.8c2.8-0.4,5.7-1.2,8.6-2.2c3.5-1.3,6.7-3,9.7-5.3
				c3.5-2.7,6.3-6.2,8.4-10.3c2.2-4.3,3.1-9.4,2.9-15c-0.3-6.6-1.3-11.9-3.1-16.3c-1.9-4.6-4.2-8.2-7-10.9c-2.3-2.3-5.1-4.1-8.2-5.4
				c-1.1-0.8-2.1-1.4-3-1.8c-0.1-0.1-0.6-0.3-2-1.2C172.3,139.3,168.5,138.4,164.3,138.4L164.3,138.4z"/>
		</g>
		<g>
			<path class="st0" d="M201,152.1c2.3,0,4,0.3,5.1,1c1.1,0.7,2,1.7,2.6,3.1l4.3,18.7l0.7,6.3l1.7-8.8c0.7-2.1,1.3-3.9,1.9-5.5
				c0.6-1.6,1.1-3.1,1.7-4.8c0.6-1.6,1-3,1.4-4.2c0.8-2.3,1.9-3.9,3.4-4.6c1.2-0.6,3.1-1,5.9-1c0.5,0,1.1,0,1.6,0
				c1.8,0.1,3.1,0.4,3.9,1c0.8,0.6,1.3,1.3,1.5,2.1c0.2,0.8,0.2,1.7-0.1,2.9L222,191c-1.1,1.8-2.3,3.2-3.6,4.1
				c-1.3,0.9-3.1,1.4-5.4,1.4c-1.9,0-3.5-0.4-4.8-1.1c-1.3-0.7-2.3-1.6-3-2.5c-0.8-0.9-1.4-2.1-2.1-3.6c-1-3-2-6.2-3-9.4
				c-1-3.2-2-6.3-2.9-9.2c-0.9-2.9-1.7-5.5-2.4-7.7c-0.7-2.2-1.2-3.7-1.4-4.6c-0.6-1.8-0.2-3.3,0.9-4.6
				C195.4,152.8,197.7,152.1,201,152.1 M201,138.1c-7.3,0-13.1,2.1-17,6.2c-4.6,4.9-6.2,11.7-4.2,18.3l0,0.1l0,0.1l0.9,2.7l0.6,1.9
				l1.4,4.5l1,3.2c0.9,2.9,1.9,6,3,9.3c1,3.2,2,6.3,3,9.4l0.2,0.6l0.3,0.6c1.1,2.7,2.5,4.9,4,6.9c1.9,2.3,4.2,4.3,7,5.9
				c3.4,1.9,7.3,2.9,11.7,2.9c5.4,0,10-1.4,13.7-4.1c2.7-2,5.2-4.7,7.2-8.1l0.5-0.8l0.4-0.8l14.6-32.6l0.7-1.6l0.3-1.7
				c0.5-3,0.5-5.8-0.1-8.4c-0.9-4.1-3.3-7.6-6.8-10.2c-3.1-2.3-7.1-3.6-11.7-3.8c-0.8,0-1.5,0-2.2,0c-5.2,0-9.2,0.8-12.5,2.6
				c-0.7,0.4-1.4,0.8-2.1,1.3c-0.5-0.4-1-0.7-1.5-1C210.1,139.2,206,138.1,201,138.1L201,138.1z"/>
		</g>
		<g>
			<path class="st0" d="M267.6,151.8c4.7,0,8.4,0.5,11.1,1.4c2.9,1,5,2.2,6.3,3.7c1.3,1.4,2.1,2.8,2.4,4.1c0.3,1.3,0.5,2.2,0.5,2.7
				c-0.2,3.6-1.2,6.5-2.9,8.7c-1.7,2.2-3.8,3.9-6.3,5c-2.4,1.1-4.9,1.9-7.3,2.3c-2.4,0.4-5.2,0.6-8.5,0.6c0.4,2.5,1,4.3,1.8,5.4
				c0.8,1.1,1.6,1.7,2.5,1.8c0.3,0,0.6,0.1,0.8,0.1c0.6,0,1.2-0.1,1.8-0.3c0.8-0.3,1.8-0.9,2.8-1.8c1.5-1.3,3.1-2.3,4.7-2.9
				c1.6-0.6,3.7-0.9,6.2-0.9c2.8,0,4.7,0.4,5.7,1.1c1,0.8,1.5,1.6,1.4,2.6c0,1-0.4,2.2-1.2,3.7c-1.2,1.4-2.5,2.5-4,3.5
				c-1.5,0.9-3.6,1.8-6.3,2.6c-2.7,0.8-6.1,1.2-10.3,1.2c-0.2,0-0.4,0-0.7,0c-3.8,0-7-0.6-9.6-1.7c-2.8-1.2-5-2.8-6.8-4.8
				c-1.8-2-3.2-4.1-4.1-6.3c-0.9-2.2-1.6-4.3-2-6.2c-0.4-1.9-0.6-3.4-0.6-4.5c0-1.1,0.1-2.5,0.3-4.2c0.2-1.7,0.6-3.6,1.3-5.5
				c0.7-1.9,1.8-3.7,3.4-5.5c1.5-1.7,3.6-3.1,6.3-4.2c2.7-1.1,6-1.7,10.2-1.7C266.9,151.8,267.3,151.8,267.6,151.8 M261.5,172.9
				c4.2-0.4,7.3-1.3,9.4-2.8c2.1-1.5,3.3-3.2,3.6-5.1c0.3-1.9,0-3.5-1-4.8c-0.9-1.2-2.2-1.8-3.9-1.8c-0.2,0-0.4,0-0.6,0
				c-2,0.1-3.5,0.9-4.5,2.3c-1,1.5-1.8,3.2-2.2,5.1C261.9,167.7,261.7,170.1,261.5,172.9 M267.6,137.8c-0.4,0-0.8,0-1.2,0l0,0l0,0
				c-5.9,0.1-10.9,1-15.2,2.8c-4.7,1.9-8.5,4.6-11.5,8c-2.6,3-4.6,6.3-5.9,9.7c-1.2,3.1-1.9,6.1-2.2,9.1c-0.2,2.2-0.3,4-0.3,5.6
				c0,2.1,0.3,4.3,0.8,7.2c0.6,2.8,1.5,5.8,2.8,8.9c1.5,3.6,3.7,7.1,6.6,10.2c3.1,3.4,7,6.2,11.5,8.2c4.4,2,9.5,3,15.3,3
				c0.3,0,0.6,0,0.9,0c5.5-0.1,10-0.7,13.9-1.8c4-1.1,7.2-2.5,9.9-4.1c2.7-1.7,5.2-3.8,7.3-6.3l1.1-1.3l0.8-1.5
				c1.7-3.4,2.5-6.5,2.6-9.5c0.2-4.6-1.5-8.9-4.7-12.2c1-2.8,1.6-5.9,1.8-9.3l0-0.4v-0.4c0-1.7-0.3-3.5-0.8-6
				c-0.9-3.6-2.8-7.1-5.7-10.3c-2.9-3.2-6.9-5.7-12.1-7.5C279.1,138.5,273.9,137.8,267.6,137.8L267.6,137.8z"/>
		</g>
		<g>
			<path class="st0" d="M309.4,152.2c1.7,0,3.1,0.2,4.1,0.7c1.2,0.5,2,1.1,2.5,1.8c0.5,0.7,0.9,1.6,1.1,2.7c2.5-1.4,4.8-2.4,6.9-3.1
				c2-0.7,4.2-1.2,6.5-1.3c0.3,0,1,0,2,0c1,0,2.1,0.2,3.3,0.7c1.2,0.5,2.4,1.4,3.6,2.7c1.2,1.3,2.2,3.2,3,5.7
				c0.8,2.5,1.3,5.8,1.4,9.8c0.2,5.1,0.4,9.2,0.5,12.5c0.1,3.3,0,5.8-0.3,7.5c-0.3,1.8-1,3-2.1,3.7c-1.1,0.7-2.7,1-5,1
				c-2.2,0-3.8-0.3-4.9-1c-1-0.7-1.7-1.4-2-2.3c-0.3-0.9-0.4-1.7-0.4-2.4c0-0.4,0.1-1.6,0.2-3.5c0.1-1.9,0.2-4.1,0.3-6.6
				c0.1-2.5,0.1-5-0.1-7.4c-0.1-2.4-0.4-4.4-0.8-6c-0.4-1.5-1.1-2.2-2-2.2c0,0-0.1,0-0.1,0c-1.2,0.1-2.3,0.5-3.3,1.4
				c-1,0.8-1.9,1.8-2.6,2.8c-0.8,1.1-1.6,2.3-2.4,3.9l1,16.4c0,1.4-0.2,2.6-0.6,3.5c-0.4,0.9-1.2,1.7-2.3,2.4
				c-1.1,0.7-2.8,1.1-5,1.1c-1.8,0-3.3-0.1-4.4-0.4c-1.1-0.3-2.2-0.9-3-1.7c-0.9-0.9-1.4-2.1-1.6-3.8c-0.1-1.4-0.2-3.3-0.4-5.9
				c-0.2-2.5-0.4-5.3-0.7-8.3c-0.2-3-0.5-5.9-0.7-8.6c-0.2-2.7-0.4-5.8-0.7-9.3c0.1-1.2,0.4-2.2,0.9-3c0.4-0.8,1.2-1.5,2.4-2.2
				c1.1-0.7,2.7-1,4.8-1.1C308.9,152.2,309.2,152.2,309.4,152.2 M309.4,138.2c-0.4,0-0.8,0-1.2,0c-4.4,0.2-8.1,1.1-11.3,2.9
				c-3.4,1.9-5.9,4.4-7.6,7.5c-1.4,2.4-2.2,5.2-2.6,8.4l-0.1,1.3l0.1,1.3c0.3,3.5,0.5,6.5,0.7,9.2c0.2,2.7,0.4,5.6,0.7,8.6
				c0.2,3,0.5,5.8,0.7,8.3c0.2,2.4,0.3,4.2,0.4,5.4l0,0.2l0,0.2c0.5,6.4,3.4,10.4,5.8,12.7c2.7,2.6,5.8,4.4,9.3,5.3
				c2.3,0.6,4.8,0.9,7.8,0.9c4.9,0,9-1.1,12.4-3.2c0,0,0.1,0.1,0.1,0.1c3.3,2.1,7.4,3.1,12.3,3.1c5.1,0,9.2-1.1,12.6-3.3
				c4.4-2.8,7.3-7.4,8.3-13c0.5-2.8,0.6-6.1,0.5-10.4c-0.1-3.3-0.3-7.5-0.5-12.6c-0.2-5.4-0.9-9.9-2.1-13.7c-1.5-4.5-3.5-8-6.1-10.8
				c-2.7-2.9-5.6-4.9-8.8-6.2c-2.9-1.1-5.7-1.7-8.4-1.7h-2H330l-0.4,0c-3.2,0.2-6.3,0.8-9.2,1.7c-0.4-0.2-0.8-0.4-1.3-0.6
				C316.2,138.8,313.1,138.2,309.4,138.2L309.4,138.2z"/>
		</g>
		<g>
			<path class="st0" d="M362.4,135.2c0.4,0,1,0.1,1.6,0.2c1,0.2,2,0.6,3,1.2c1,0.6,1.9,1.5,2.6,2.7c0.7,1.2,1,2.8,0.8,4.7
				c-0.1,1.9-0.6,3.3-1.4,4.3c-0.8,1-1.7,1.6-2.7,2c-1,0.3-2.2,0.5-3.7,0.6c-1.8-0.1-3.3-0.3-4.5-0.7c-1.2-0.4-2.3-1.1-3.3-2.2
				c-1-1.1-1.5-2.7-1.6-4.9c-0.1-2.2,0.2-3.8,0.9-4.8c0.7-1,1.6-1.8,2.6-2.2c1-0.4,2-0.6,3-0.7c1,0,1.7-0.1,2.1-0.2
				C362.1,135.2,362.3,135.2,362.4,135.2 M363.2,156.6c0.6,0,1.1,0,1.7,0.1c2,0.1,3.8,0.8,5.3,1.9c1.6,1.1,2.5,3.1,2.8,5.8
				c0.3,2,0.6,4.4,0.8,7.2c0.3,2.8,0.5,5.5,0.8,8.1c0.2,2.6,0.5,5.7,0.9,9.3c0.1,1.5,0.1,2.8-0.2,3.7c-0.3,1-0.9,1.8-2,2.6
				c-1.1,0.8-2.8,1.1-5.1,1.1c-2.3,0-4.1-0.3-5.4-1c-1.2-0.7-2.1-1.5-2.6-2.3c-0.5-0.9-0.9-2-1.1-3.4l-2.5-24.8
				c-0.6-1.5-1-2.4-1.1-2.7c-0.1-0.2-0.2-0.7-0.4-1.4c-0.2-0.7,0-1.4,0.5-2.2c0.5-0.8,1.7-1.4,3.5-1.7
				C360.4,156.8,361.8,156.6,363.2,156.6 M362.4,121.2c-0.8,0-1.6,0.1-2.4,0.2c-0.1,0-0.3,0-0.6,0c-2.5,0.1-5,0.6-7.5,1.6
				c-3.8,1.5-7,4.1-9.3,7.6c-2.3,3.5-3.4,7.9-3.2,13c0.1,4.1,1.1,7.7,2.9,10.7c-1.3,3.3-1.6,6.8-0.8,10.2c0.2,1,0.4,1.7,0.6,2.2
				l0.3,0.9l0.4,0.7c0,0,0.1,0.1,0.1,0.3l2.3,22.7l0,0.3l0.1,0.3c0.5,3.2,1.5,6,2.9,8.4c1.8,3,4.5,5.5,7.9,7.4
				c3.4,1.9,7.3,2.8,12.2,2.8c5.4,0,9.7-1.2,13.2-3.7c3.7-2.6,6.2-6.1,7.4-10.2c0.8-2.7,1-5.6,0.7-8.8l0,0l0,0
				c-0.3-3.5-0.6-6.6-0.9-9.2c-0.2-2.7-0.5-5.4-0.8-8.2c-0.3-2.9-0.6-5.5-0.9-7.7c-0.6-4.7-2.1-8.1-4-10.7c0.8-2.1,1.3-4.4,1.5-6.8
				c0.3-4.8-0.6-9.1-2.7-12.7c-1.9-3.3-4.4-5.9-7.5-7.8c-2.5-1.5-5-2.4-7.6-2.9C365.1,121.3,363.7,121.2,362.4,121.2L362.4,121.2z"
				/>
		</g>
		<g>
			<path class="st0" d="M407.4,151.7c3,0,5.6,0.3,7.8,0.9c2.4,0.7,4.4,1.5,6,2.4c1.6,0.9,2.8,1.8,3.7,2.5c0.9,0.7,1.6,1.1,2,1.1
				c0.8,0.1,1.5,0.8,2.2,2.2c0.4,2.9,0.8,5.5,1.1,7.7c0.3,2.2,0.6,4.6,0.9,7.1c0.3,2.5,0.5,4.8,0.7,6.9c0.2,2.2,0.3,3.9,0.3,5.1
				c0,2-0.1,3.7-0.4,4.9c-0.2,1.2-0.9,2.2-2.1,2.8c-1.2,0.6-3.1,1-5.8,1.2c-0.8,0.1-1.5,0.1-2.1,0.1c-0.9,0-1.7-0.1-2.2-0.2
				c-0.9-0.2-1.6-0.6-2-1.2c-0.6,0.5-1.6,0.9-3,1c-1.4,0.2-3.4,0.3-5.8,0.3c-3.2-0.5-5.9-1.2-8.2-2c-2.3-0.8-4.6-2.1-6.9-3.8
				c-2.3-1.7-4.2-4-5.7-6.8c-1.5-2.9-2.2-6.4-2.2-10.7c0.1-4.3,0.8-7.8,2.3-10.5c1.4-2.7,3.2-4.8,5.3-6.4c2.1-1.5,4.1-2.6,6.2-3.3
				c2-0.7,4.4-1.1,7.2-1.4C406.8,151.7,407.1,151.7,407.4,151.7 M410.4,188c0.8,0,1.5-0.4,2.2-1.1c0.7-0.8,1.3-1.6,1.8-2.6
				c0.5-1,1-2.2,1.6-3.6l-1.7-17.7c-0.3-0.5-1.1-1.1-2.2-1.7c-1.1-0.6-2.2-1.1-3.2-1.6c-0.7-0.3-1.2-0.5-1.4-0.5
				c-0.1,0-0.1,0-0.1,0.1c0,0.1-0.4,0.7-1.1,1.8c-0.7,1.1-1.4,2.8-2.2,4.9c-0.7,2.1-1.1,4.7-1.2,7.7c-0.1,3,0.3,5.5,1.1,7.7
				c0.8,2.2,1.8,3.8,3,5C408.2,187.4,409.3,188,410.4,188 M407.4,137.7c-0.4,0-0.8,0-1.2,0l-0.6,0l-0.6,0.1c-3.8,0.4-7,1.1-10,2
				c-3.5,1.1-6.9,2.9-10.2,5.3c-3.8,2.8-6.9,6.5-9.3,11c-2.5,4.7-3.8,10.4-3.9,16.8c-0.1,6.6,1.2,12.5,3.8,17.5
				c2.5,4.7,5.8,8.6,9.8,11.6c3.4,2.5,6.9,4.4,10.5,5.7c3.2,1.1,6.7,2,10.8,2.7l1.1,0.2h1.1c3.1,0,5.6-0.1,7.6-0.4
				c0.1,0,0.2,0,0.3,0c1.5,0.3,3.2,0.5,5.2,0.5c1,0,2,0,3.1-0.1l0.1,0l0.1,0c4.7-0.4,8.2-1.3,11.2-2.8c4.9-2.6,8.3-7.1,9.3-12.5
				c0.4-2.2,0.6-4.6,0.6-7.6c0-1.7-0.1-3.8-0.4-6.4c-0.2-2.2-0.5-4.5-0.7-7.2c-0.3-2.6-0.6-5.1-0.9-7.4c-0.3-2.3-0.7-4.9-1.1-7.8
				l-0.3-2.3l-1-2c-2.5-5.1-6-7.6-9-8.8c-1.2-0.9-2.6-1.8-4.2-2.7c-2.7-1.6-5.7-2.8-9.3-3.9C415.6,138.2,411.8,137.7,407.4,137.7
				L407.4,137.7z"/>
		</g>
	</g>
	<g>
		<g>
			<g>
				<path class="st2" d="M63.8,102.7c-0.1-3.7-0.1-7.7-0.1-12c0-4.3,0.1-8.4,0.2-12.4s0.2-7.6,0.4-10.7c0.1-3.1,0.3-5.4,0.4-6.7
					c0.2-1.7,0.8-3.1,1.8-4c1-0.9,2-1.5,3.3-1.9c1.2-0.4,2.7-0.6,4.4-0.7c1.7,0.2,3.1,0.5,4.1,0.8c1,0.3,1.8,0.8,2.2,1.5
					c0.9,1.4,1.3,2.8,1.3,4.2c0,1.3-0.1,3.1-0.3,5.2c-0.4,5.4-0.7,10.7-0.7,16c-0.1,5.2-0.1,10,0,14.2c0.1,4.3,0.2,8.9,0.4,14
					c-0.1,1.5-0.3,2.8-0.7,3.7c-0.4,0.9-1.2,1.8-2.4,2.6c-1.2,0.8-2.9,1.1-5.2,1.1s-4-0.3-5.2-0.8c-1.2-0.5-2-1.2-2.5-2
					c-0.4-0.8-0.7-1.7-0.9-2.8C64,109.6,63.8,106.5,63.8,102.7z"/>
			</g>
			<g>
				<path class="st2" d="M128.5,92.8c-2.7,0-4.6-0.3-5.8-1c-1.2-0.7-2-1.4-2.3-2.1c-0.3-0.7-0.5-1.2-0.5-1.4s-0.1-0.7-0.4-1.3
					c-0.2-0.7-0.6-1.3-1.2-1.9c-0.6-0.6-1.3-0.9-2.2-0.9c-0.9-0.1-1.8,0.6-2.6,2c-0.8,1.4-1.5,3-2.1,4.9c-0.6,1.9-0.9,3.7-1,5.5
					c-0.1,1.7,0.1,3.5,0.6,5.3c0.4,1.8,1.1,3.3,2,4.5c0.9,1.2,2,1.8,3.2,1.9c1.9,0.1,3.2-0.6,4-2c0.3-0.9,0.7-1.7,1.4-2.3
					c0.7-0.6,1.7-1.1,3.2-1.5c1.4-0.4,3.5-0.6,6.2-0.5c2.7,0.1,4.5,0.4,5.5,1.1c1,0.7,1.5,1.4,1.5,2.2c0,0.8-0.3,1.8-1,2.9
					c-1.9,1.9-3.8,3.4-5.6,4.7c-1.8,1.2-4,2.3-6.7,3.3c-2.6,0.9-5.6,1.4-9,1.4c-6.7,0-12-1.9-15.9-5.8c-3.9-3.8-6-9.3-6.3-16.3
					c-0.1-3.5,0.4-6.6,1.8-9.3c1.3-2.8,3.1-5.1,5.3-7c2.2-1.9,4.7-3.4,7.3-4.5c2.7-1,5.3-1.6,7.9-1.8c2.6-0.1,5.1,0.2,7.4,1.1
					c2.3,0.9,4.5,2.1,6.4,3.6c1.9,1.5,3.4,3.1,4.6,4.8c1.2,1.7,1.8,3.2,2,4.7c0.1,1.4-0.2,2.5-0.9,3.3c-0.7,0.8-1.6,1.4-2.7,1.7
					c-1.1,0.3-2,0.5-2.8,0.6C129,92.8,128.5,92.8,128.5,92.8z"/>
			</g>
			<g>
				<path class="st2" d="M174.7,74.3c1.4,0.8,2.2,1.3,2.5,1.4c0.7,0.4,1.6,1,2.8,1.8c2.1,0.7,3.8,1.8,5.2,3.1
					c1.4,1.3,2.7,3.4,3.8,6.2c1.2,2.8,1.9,6.7,2.1,11.5c0.1,3.3-0.3,6-1.4,8.2c-1.1,2.2-2.6,4-4.4,5.4c-1.8,1.4-3.8,2.5-5.9,3.3
					c-2.1,0.8-4.1,1.3-6,1.6c-1.9,0.3-4,0.5-6.5,0.7c-2.7,0-5-0.2-7-0.7c-2-0.5-4-1.4-5.9-2.8c-2-1.4-3.6-3.5-4.9-6.2
					c-1.3-2.8-1.8-6.4-1.7-11c0.1-4.6,0.9-8.3,2.4-11.2c1.5-2.9,3.3-5.2,5.4-6.9c2.1-1.7,4.2-2.9,6.3-3.6c2.1-0.7,4.6-1.3,7.4-1.6
					C171.3,73.3,173.3,73.5,174.7,74.3z M169.2,84.1c-1.7,2.3-3,4.5-3.9,6.6c-0.9,2.1-1.3,4.6-1.3,7.4c0,2.8,0.3,4.9,0.9,6.5
					c0.6,1.6,1.3,2.7,2,3.4c0.7,0.7,1.3,1,1.7,1s1.1-0.2,2-0.6c0.9-0.4,1.8-1.3,2.5-2.8c0.8-1.4,1.1-3.7,1-6.8
					c-0.1-2.6-0.3-4.7-0.8-6.3c-0.4-1.6-1-3-1.8-4.3C171,87,170.2,85.6,169.2,84.1z"/>
			</g>
			<g>
				<path class="st2" d="M211,117.6c-1.8,0-3.3-0.1-4.4-0.4c-1.1-0.3-2.2-0.9-3-1.7c-0.9-0.9-1.4-2.1-1.6-3.8
					c-0.1-1.4-0.2-3.3-0.4-5.9c-0.2-2.5-0.4-5.3-0.7-8.3c-0.2-3-0.5-5.9-0.7-8.6c-0.2-2.7-0.4-5.8-0.7-9.3c0.1-1.2,0.4-2.2,0.9-3
					c0.4-0.8,1.2-1.5,2.4-2.2s2.7-1,4.8-1.1c2.1-0.1,3.7,0.1,4.9,0.7c1.2,0.5,2,1.1,2.5,1.8c0.5,0.7,0.9,1.6,1.1,2.7
					c2.5-1.4,4.8-2.4,6.9-3.1c2-0.7,4.2-1.2,6.5-1.3c0.3,0,1,0,2,0c1,0,2.1,0.2,3.3,0.7c1.2,0.5,2.4,1.4,3.6,2.7
					c1.2,1.3,2.2,3.2,3,5.7c0.8,2.5,1.3,5.8,1.4,9.8c0.2,5.1,0.4,9.2,0.5,12.5c0.1,3.3,0,5.8-0.3,7.5c-0.3,1.8-1,3-2.1,3.7
					c-1.1,0.7-2.7,1-5,1c-2.2,0-3.8-0.3-4.9-1c-1-0.7-1.7-1.4-2-2.3c-0.3-0.9-0.4-1.7-0.4-2.4c0-0.4,0.1-1.6,0.2-3.5
					c0.1-1.9,0.2-4.1,0.3-6.6c0.1-2.5,0.1-5-0.1-7.4c-0.1-2.4-0.4-4.4-0.8-6c-0.4-1.6-1.2-2.3-2.1-2.2c-1.2,0.1-2.3,0.5-3.3,1.4
					c-1,0.8-1.9,1.8-2.6,2.8c-0.8,1.1-1.6,2.3-2.4,3.9l1,16.4c0,1.4-0.2,2.6-0.6,3.5c-0.4,0.9-1.2,1.7-2.3,2.4
					C214.8,117.2,213.2,117.6,211,117.6z"/>
			</g>
			<g>
				<path class="st2" d="M275,100.2c-5.2-0.1-9.2-0.7-12.1-1.6c-2.9-0.9-4.9-2.1-6.2-3.4c-1.2-1.3-1.9-2.6-2.2-3.9
					c-0.3-1.3-0.4-2.3-0.4-3c0-0.7,0.1-1.8,0.3-3.4s0.9-3.1,2-4.8c1.1-1.7,3-3.1,5.7-4.3c2.7-1.2,6.6-1.9,11.6-2.1
					c5.5-0.1,9.8,0.2,12.7,1c3,0.8,5.1,1.7,6.4,2.8c1.3,1.1,2.2,2.5,2.7,4.1c0,0.9-0.1,1.9-0.3,2.9c-0.2,1-0.8,1.8-1.8,2.4
					c-1,0.6-2.7,0.9-5.1,0.8c-1.9-0.1-3.4-0.3-4.3-0.5c-1-0.3-1.7-0.6-2.1-1c-0.4-0.4-0.9-0.8-1.3-1.2c-0.4-0.4-1.1-0.8-2-1.1
					c-0.9-0.3-2.2-0.5-4.1-0.5c-2.3-0.1-4,0.1-5.1,0.5c-1.1,0.4-1.9,0.9-2.3,1.5c-0.4,0.6-0.6,1.3-0.7,2.1c0.3,1.2,1.1,2,2.3,2.6
					c1.2,0.6,3.4,0.9,6.6,1c6,0.2,10.6,0.8,13.8,1.8c3.2,1,5.5,2.1,6.8,3.4c1.3,1.3,2.1,2.6,2.4,3.9c0.2,1.3,0.4,2.3,0.4,3
					c0,0.7-0.2,1.8-0.7,3.4c-0.4,1.5-1.4,3.1-2.8,4.8c-1.4,1.7-3.7,3.1-6.7,4.3c-3,1.2-7,1.9-12,2.1c-5.4,0.1-9.7-0.2-12.7-1
					c-3-0.8-5.1-1.7-6.4-2.8c-1.3-1.1-2.2-2.5-2.7-4.1c0-1,0.1-2,0.4-2.9c0.2-0.9,0.9-1.7,1.9-2.3c1-0.6,2.7-0.9,5-0.8
					c2,0.1,3.5,0.3,4.4,0.5c0.9,0.3,1.6,0.6,2.1,1c0.5,0.4,0.9,0.8,1.3,1.2c0.4,0.4,1.1,0.8,2,1.1c0.9,0.3,2.2,0.5,4,0.5
					c2.3,0.1,4-0.1,5.1-0.5c1.1-0.4,1.9-0.9,2.3-1.5c0.4-0.6,0.6-1.3,0.6-2.1c-0.3-1.2-1-2.2-2.2-2.8
					C280.3,100.6,278.1,100.3,275,100.2z"/>
			</g>
		</g>
		<g>
			<g>
				<path class="st2" d="M366.4,74.3c1.4,0.8,2.2,1.3,2.5,1.4c0.7,0.4,1.6,1,2.8,1.8c2.1,0.7,3.8,1.8,5.2,3.1
					c1.4,1.3,2.7,3.4,3.8,6.2c1.2,2.8,1.9,6.7,2.1,11.5c0.1,3.3-0.3,6-1.4,8.2c-1.1,2.2-2.6,4-4.4,5.4c-1.8,1.4-3.8,2.5-5.9,3.3
					c-2.1,0.8-4.1,1.3-6,1.6c-1.9,0.3-4,0.5-6.5,0.7c-2.7,0-5-0.2-7-0.7c-2-0.5-4-1.4-5.9-2.8c-2-1.4-3.6-3.5-4.9-6.2
					c-1.3-2.8-1.8-6.4-1.7-11c0.1-4.6,0.9-8.3,2.4-11.2c1.5-2.9,3.3-5.2,5.4-6.9c2.1-1.7,4.2-2.9,6.3-3.6c2.1-0.7,4.6-1.3,7.4-1.6
					C363.1,73.3,365.1,73.5,366.4,74.3z M361,84.1c-1.7,2.3-3,4.5-3.9,6.6c-0.9,2.1-1.3,4.6-1.3,7.4c0,2.8,0.3,4.9,0.9,6.5
					c0.6,1.6,1.3,2.7,2,3.4c0.7,0.7,1.3,1,1.7,1s1.1-0.2,2-0.6c0.9-0.4,1.8-1.3,2.5-2.8c0.8-1.4,1.1-3.7,1-6.8
					c-0.1-2.6-0.3-4.7-0.8-6.3c-0.4-1.6-1-3-1.8-4.3C362.8,87,361.9,85.6,361,84.1z"/>
			</g>
			<g>
				<path class="st2" d="M407.1,117.6c-1.5,0-2.8-0.2-4-0.6c-1.1-0.4-2.3-1.1-3.4-2.2c-1.1-1-2-2.6-2.6-4.6c-0.6-2-1.4-4.5-2.3-7.5
					c-0.9-3.1-1.7-6.4-2.4-10.1c-0.7-3.7-1.1-7.4-1.2-11.3c-0.1-3.9,0.3-7.6,1.2-11.2c0.9-3.6,2.5-6.8,4.9-9.7
					c2.1-2.5,4.4-4.3,6.9-5.2c2.5-0.9,4.9-1.4,7.2-1.4s4.9,0.3,7.9,0.9c1.4,0.7,2.4,1.3,3.1,1.8c0.7,0.6,1.1,1.2,1.1,1.9
					c0.1,0.7-0.5,1.4-1.8,2.1c-1.7,0.9-3.3,1.6-5,2.1c-1.7,0.5-3.1,1.1-4.4,1.7c-1.3,0.7-2.3,1.9-3,3.6c-0.8,2.1-1.4,4-1.8,5.8
					c-0.3,1.7-0.5,3.7-0.5,5.8c0,2.1,0.1,4.7,0.4,7.9c2.4-0.7,4.4-1,6-1.2c1.6-0.1,3.1,0,4.5,0.4c1.4,0.4,2.3,1.4,2.7,2.8
					c0.4,1.4,0.1,2.5-1,3.4c-1.1,0.9-2.5,1.5-4.1,2c-1.7,0.5-3.8,0.9-6.4,1.2l4.7,15.3c0.3,1.2,0.3,2.3,0.1,3.1
					c-0.2,0.8-0.8,1.6-1.9,2.2C411.1,117.3,409.4,117.6,407.1,117.6z"/>
			</g>
		</g>
	</g>
	<g>
		<g>
			<path class="st2" d="M89,152.3c-1.2-0.6-2.1-1.3-2.6-2.1c-0.5-0.8-0.8-1.5-0.9-2.2c-0.1-0.7-0.1-1.1-0.1-1.2c0-0.4-0.1-1-0.4-1.8
				c-0.2-0.8-0.9-1.2-2.1-1.2c-1.9,0-3.6,0.6-5.1,1.8c-1.5,1.2-2.3,3-2.4,5.4c-0.1,2.4,0.4,4.5,1.8,6.2c1.3,1.7,3.9,2.6,7.8,2.7
				c1.9,0,4,0.3,6.1,0.9c2.1,0.6,4.2,1.5,6,2.8c1.9,1.3,3.4,3,4.5,5.1c1.1,2.1,1.7,4.8,1.7,8c-0.1,6.4-1.7,11.3-4.9,14.8
				c-3.2,3.5-8.4,5.2-15.8,5.2c-4.9,0-8.8-0.6-11.8-1.9c-3-1.3-5.1-2.8-6.5-4.5c-1.3-1.7-2.1-3.3-2.1-4.7c-0.1-1.4,0-2.7,0.3-4
				c0.2-1.3,1-2.4,2.2-3.4c1.2-0.9,3.2-1.5,5.8-1.7c2.8-0.2,4.7,0,5.9,0.7c1.2,0.7,1.9,1.5,2.2,2.3s0.5,1.4,0.5,1.6
				c0,0.2,0.1,0.7,0.3,1.6c0.2,0.8,0.5,1.6,1,2.4c0.5,0.8,1.3,1.1,2.2,1.1c1.4,0,2.7-0.6,3.7-1.8c1-1.2,1.7-3.2,2-6
				c0.5-5.4-2.1-8.1-7.8-8.1c-1.4,0-3.2-0.2-5.3-0.7c-2.2-0.5-4.3-1.3-6.5-2.6c-2.1-1.3-3.9-3.1-5.4-5.4c-1.4-2.3-2.1-5.4-2.1-9.1
				c0.1-3.8,0.7-6.9,2-9.3c1.2-2.4,2.9-4.3,4.9-5.6c2-1.3,4.3-2.3,6.7-2.9c2.4-0.6,4.9-0.9,7.3-1c3.2-0.1,6.4,0.3,9.4,1.2
				s5.5,2.2,7.5,4c2,1.8,3.2,4.1,3.5,6.9c0.2,2.1-0.1,3.7-0.9,4.7c-0.8,1.1-1.8,1.8-2.9,2.2c-1.1,0.4-2.6,0.6-4.4,0.7
				C92,153.2,90.2,152.9,89,152.3z"/>
		</g>
		<g>
			<path class="st2" d="M121.4,131.2c1.8,0.1,3.3,0.3,4.4,0.6c1.2,0.3,2.2,0.9,3.1,1.7c0.9,0.8,1.3,1.9,1.3,3.4c0,0.9,0,2.9,0.1,5.8
				c0.1,2.9,0.1,6.3,0.2,10.3c0.1,3.9,0.2,8,0.3,12.2c0.1,4.2,0.2,8.1,0.3,11.7c0.1,3.6,0.1,7.7,0.2,12.2c0,1.5-0.2,2.8-0.6,3.9
				c-0.4,1-1.2,2-2.4,2.7c-1.2,0.8-2.9,1.1-5.2,1.1c-3,0-5.2-0.4-6.6-1.2c-1.4-0.8-2.2-1.8-2.5-2.8c-0.3-1-0.4-1.9-0.4-2.4
				c0.1-0.3,0.1-1.6,0.1-3.8c0-2.2,0-5.1-0.1-8.5c0-3.4-0.1-7.1-0.2-11c-0.1-3.9-0.1-7.8-0.2-11.6c-0.1-3.8-0.2-7.2-0.3-10.2
				c-0.1-3-0.2-5.2-0.3-6.7c-0.1-2,0.3-3.5,1.4-4.6c1.1-1,2.3-1.7,3.7-2C119.4,131.5,120.6,131.3,121.4,131.2z"/>
		</g>
		<g>
			<path class="st2" d="M168.6,153.3c1.4,0.8,2.2,1.3,2.5,1.4c0.7,0.4,1.6,1,2.8,1.8c2.1,0.7,3.8,1.8,5.2,3.1
				c1.4,1.3,2.7,3.4,3.8,6.2c1.2,2.8,1.9,6.7,2.1,11.5c0.1,3.3-0.3,6-1.4,8.2c-1.1,2.2-2.6,4-4.4,5.4c-1.8,1.4-3.8,2.5-5.9,3.3
				c-2.1,0.8-4.1,1.3-6,1.6c-1.9,0.3-4,0.5-6.5,0.7c-2.7,0-5-0.2-7-0.7c-2-0.5-4-1.4-5.9-2.8c-2-1.4-3.6-3.5-4.9-6.2
				c-1.3-2.8-1.8-6.4-1.7-11c0.1-4.6,0.9-8.3,2.4-11.2c1.5-2.9,3.3-5.2,5.4-6.9c2.1-1.7,4.2-2.9,6.3-3.6c2.1-0.7,4.6-1.3,7.4-1.6
				C165.2,152.2,167.2,152.5,168.6,153.3z M163.1,163.1c-1.7,2.3-3,4.5-3.9,6.6c-0.9,2.1-1.3,4.6-1.3,7.4c0,2.8,0.3,4.9,0.9,6.5
				c0.6,1.6,1.3,2.7,2,3.4c0.7,0.7,1.3,1,1.7,1s1.1-0.2,2-0.6c0.9-0.4,1.8-1.3,2.5-2.8c0.8-1.4,1.1-3.7,1-6.8
				c-0.1-2.6-0.3-4.7-0.8-6.3c-0.4-1.6-1-3-1.8-4.3C164.9,166,164.1,164.6,163.1,163.1z"/>
		</g>
		<g>
			<path class="st2" d="M200.1,180c-1-3.2-2-6.3-2.9-9.2c-0.9-2.9-1.7-5.5-2.4-7.7c-0.7-2.2-1.2-3.7-1.4-4.6
				c-0.6-1.8-0.2-3.3,0.9-4.6c1.2-1.2,3.4-1.8,6.8-1.8c2.3,0,4,0.3,5.1,1c1.1,0.7,2,1.7,2.6,3.1l4.3,18.7l0.7,6.3l1.7-8.8
				c0.7-2.1,1.3-3.9,1.9-5.5c0.6-1.6,1.1-3.1,1.7-4.8c0.6-1.6,1-3,1.4-4.2c0.8-2.3,1.9-3.9,3.4-4.6c1.4-0.8,3.9-1.1,7.5-0.9
				c1.8,0.1,3.1,0.4,3.9,1c0.8,0.6,1.3,1.3,1.5,2.1c0.2,0.8,0.2,1.7-0.1,2.9L222,191c-1.1,1.8-2.3,3.2-3.6,4.1
				c-1.3,0.9-3.1,1.4-5.4,1.4c-1.9,0-3.5-0.4-4.8-1.1c-1.3-0.7-2.3-1.6-3-2.5c-0.8-0.9-1.4-2.1-2.1-3.6
				C202.1,186.3,201.1,183.2,200.1,180z"/>
		</g>
		<g>
			<path class="st2" d="M287.9,163.8c-0.2,3.6-1.2,6.5-2.9,8.7c-1.7,2.2-3.8,3.9-6.3,5c-2.4,1.1-4.9,1.9-7.3,2.3
				c-2.4,0.4-5.2,0.6-8.5,0.6c0.4,2.5,1,4.3,1.8,5.4c0.8,1.1,1.6,1.7,2.5,1.8c0.9,0.1,1.8,0.1,2.6-0.3c0.8-0.3,1.8-0.9,2.8-1.8
				c1.5-1.3,3.1-2.3,4.7-2.9c1.6-0.6,3.7-0.9,6.2-0.9c2.8,0,4.7,0.4,5.7,1.1c1,0.8,1.5,1.6,1.4,2.6c0,1-0.4,2.2-1.2,3.7
				c-1.2,1.4-2.5,2.5-4,3.5c-1.5,0.9-3.6,1.8-6.3,2.6c-2.7,0.8-6.1,1.2-10.3,1.2c-4.1,0.1-7.5-0.5-10.2-1.7c-2.8-1.2-5-2.8-6.8-4.8
				c-1.8-2-3.2-4.1-4.1-6.3c-0.9-2.2-1.6-4.3-2-6.2c-0.4-1.9-0.6-3.4-0.6-4.5s0.1-2.5,0.3-4.2c0.2-1.7,0.6-3.6,1.3-5.5
				c0.7-1.9,1.8-3.7,3.4-5.5c1.5-1.7,3.6-3.1,6.3-4.2c2.7-1.1,6-1.7,10.2-1.7c5.2-0.1,9.2,0.4,12.1,1.4c2.9,1,5,2.2,6.3,3.7
				c1.3,1.4,2.1,2.8,2.4,4.1C287.7,162.3,287.9,163.3,287.9,163.8z M270.9,170.1c2.1-1.5,3.3-3.2,3.6-5.1c0.3-1.9,0-3.5-1-4.8
				c-1-1.3-2.5-1.9-4.5-1.8c-2,0.1-3.5,0.9-4.5,2.3c-1,1.5-1.8,3.2-2.2,5.1c-0.4,1.9-0.7,4.3-0.8,7.1
				C265.7,172.5,268.9,171.6,270.9,170.1z"/>
		</g>
		<g>
			<path class="st2" d="M312.1,196.6c-1.8,0-3.3-0.1-4.4-0.4c-1.1-0.3-2.2-0.9-3-1.7c-0.9-0.9-1.4-2.1-1.6-3.8
				c-0.1-1.4-0.2-3.3-0.4-5.9c-0.2-2.5-0.4-5.3-0.7-8.3c-0.2-3-0.5-5.9-0.7-8.6c-0.2-2.7-0.4-5.8-0.7-9.3c0.1-1.2,0.4-2.2,0.9-3
				c0.4-0.8,1.2-1.5,2.4-2.2s2.7-1,4.8-1.1c2.1-0.1,3.7,0.1,4.9,0.7c1.2,0.5,2,1.1,2.5,1.8c0.5,0.7,0.9,1.6,1.1,2.7
				c2.5-1.4,4.8-2.4,6.9-3.1c2-0.7,4.2-1.2,6.5-1.3c0.3,0,1,0,2,0c1,0,2.1,0.2,3.3,0.7c1.2,0.5,2.4,1.4,3.6,2.7
				c1.2,1.3,2.2,3.2,3,5.7c0.8,2.5,1.3,5.8,1.4,9.8c0.2,5.1,0.4,9.2,0.5,12.5c0.1,3.3,0,5.8-0.3,7.5c-0.3,1.8-1,3-2.1,3.7
				c-1.1,0.7-2.7,1-5,1c-2.2,0-3.8-0.3-4.9-1c-1-0.7-1.7-1.4-2-2.3c-0.3-0.9-0.4-1.7-0.4-2.4c0-0.4,0.1-1.6,0.2-3.5
				c0.1-1.9,0.2-4.1,0.3-6.6c0.1-2.5,0.1-5-0.1-7.4c-0.1-2.4-0.4-4.4-0.8-6c-0.4-1.6-1.2-2.3-2.1-2.2c-1.2,0.1-2.3,0.5-3.3,1.4
				c-1,0.8-1.9,1.8-2.6,2.8c-0.8,1.1-1.6,2.3-2.4,3.9l1,16.4c0,1.4-0.2,2.6-0.6,3.5c-0.4,0.9-1.2,1.7-2.3,2.4
				C315.9,196.2,314.3,196.6,312.1,196.6z"/>
		</g>
		<g>
			<path class="st2" d="M358.2,150.1c-1.2-0.4-2.3-1.1-3.3-2.2c-1-1.1-1.5-2.7-1.6-4.9c-0.1-2.2,0.2-3.8,0.9-4.8
				c0.7-1,1.6-1.8,2.6-2.2c1-0.4,2-0.6,3-0.7c1,0,1.7-0.1,2.1-0.2c0.4-0.1,1.1,0,2.1,0.2c1,0.2,2,0.6,3,1.2c1,0.6,1.9,1.5,2.6,2.7
				c0.7,1.2,1,2.8,0.8,4.7c-0.1,1.9-0.6,3.3-1.4,4.3c-0.8,1-1.7,1.6-2.7,2c-1,0.3-2.2,0.5-3.7,0.6
				C360.9,150.8,359.4,150.5,358.2,150.1z M356.6,165.1c-0.6-1.5-1-2.4-1.1-2.7c-0.1-0.2-0.2-0.7-0.4-1.4c-0.2-0.7,0-1.4,0.5-2.2
				c0.5-0.8,1.7-1.4,3.5-1.7c1.9-0.4,3.8-0.5,5.8-0.3c2,0.1,3.8,0.8,5.3,1.9c1.6,1.1,2.5,3.1,2.8,5.8c0.3,2,0.6,4.4,0.8,7.2
				c0.3,2.8,0.5,5.5,0.8,8.1c0.2,2.6,0.5,5.7,0.9,9.3c0.1,1.5,0.1,2.8-0.2,3.7c-0.3,1-0.9,1.8-2,2.6c-1.1,0.8-2.8,1.1-5.1,1.1
				c-2.3,0-4.1-0.3-5.4-1c-1.2-0.7-2.1-1.5-2.6-2.3s-0.9-2-1.1-3.4L356.6,165.1z"/>
		</g>
		<g>
			<path class="st2" d="M415.2,152.6c2.4,0.7,4.4,1.5,6,2.4c1.6,0.9,2.8,1.8,3.7,2.5c0.9,0.7,1.6,1.1,2,1.1c0.8,0.1,1.5,0.8,2.2,2.2
				c0.4,2.9,0.8,5.5,1.1,7.7c0.3,2.2,0.6,4.6,0.9,7.1c0.3,2.5,0.5,4.8,0.7,6.9c0.2,2.2,0.3,3.9,0.3,5.1c0,2-0.1,3.7-0.4,4.9
				c-0.2,1.2-0.9,2.2-2.1,2.8c-1.2,0.6-3.1,1-5.8,1.2c-2,0.1-3.4,0.1-4.3-0.1c-0.9-0.2-1.6-0.6-2-1.2c-0.6,0.5-1.6,0.9-3,1
				c-1.4,0.2-3.4,0.3-5.8,0.3c-3.2-0.5-5.9-1.2-8.2-2c-2.3-0.8-4.6-2.1-6.9-3.8c-2.3-1.7-4.2-4-5.7-6.8c-1.5-2.9-2.2-6.4-2.2-10.7
				c0.1-4.3,0.8-7.8,2.3-10.5c1.4-2.7,3.2-4.8,5.3-6.4c2.1-1.5,4.1-2.6,6.2-3.3c2-0.7,4.4-1.1,7.2-1.4
				C409.9,151.6,412.8,151.9,415.2,152.6z M414.2,162.9c-0.3-0.5-1.1-1.1-2.2-1.7c-1.1-0.6-2.2-1.1-3.2-1.6c-1-0.4-1.5-0.6-1.5-0.4
				c0,0.1-0.4,0.7-1.1,1.8c-0.7,1.1-1.4,2.8-2.2,4.9c-0.7,2.1-1.1,4.7-1.2,7.7c-0.1,3,0.3,5.5,1.1,7.7c0.8,2.2,1.8,3.8,3,5
				c1.2,1.2,2.3,1.7,3.4,1.7c0.8,0,1.5-0.4,2.2-1.1c0.7-0.8,1.3-1.6,1.8-2.6c0.5-1,1-2.2,1.6-3.6L414.2,162.9z"/>
		</g>
	</g>
</g>
</svg>
